HarariSecretScript1-Regular.ufo
<glyph name="period" format="2">
  <advance width="194"/>
  <unicode hex="002E"/>
  <outline>
    <contour>
      <point x="97" y="150" type="qcurve" smooth="yes"/>
      <point x="66" y="150"/>
      <point x="22" y="106"/>
      <point x="22" y="75" type="qcurve" smooth="yes"/>
      <point x="22" y="44"/>
      <point x="66" y="0"/>
      <point x="97" y="0" type="qcurve" smooth="yes"/>
      <point x="128" y="0"/>
      <point x="172" y="44"/>
      <point x="172" y="75" type="qcurve" smooth="yes"/>
      <point x="172" y="106"/>
      <point x="128" y="150"/>
    </contour>
    <contour>
      <point x="97" y="24" type="qcurve" smooth="yes"/>
      <point x="76" y="24"/>
      <point x="46" y="54"/>
      <point x="46" y="75" type="qcurve" smooth="yes"/>
      <point x="46" y="96"/>
      <point x="76" y="126"/>
      <point x="97" y="126" type="qcurve" smooth="yes"/>
      <point x="118" y="126"/>
      <point x="148" y="96"/>
      <point x="148" y="75" type="qcurve" smooth="yes"/>
      <point x="148" y="54"/>
      <point x="118" y="24"/>
    </contour>
    <contour>
      <point x="312" y="123" type="qcurve" smooth="yes"/>
      <point x="291" y="123"/>
      <point x="261" y="93"/>
      <point x="261" y="72" type="qcurve" smooth="yes"/>
      <point x="261" y="51"/>
      <point x="291" y="21"/>
      <point x="312" y="21" type="qcurve" smooth="yes"/>
      <point x="333" y="21"/>
      <point x="363" y="51"/>
      <point x="363" y="72" type="qcurve" smooth="yes"/>
      <point x="363" y="93"/>
      <point x="333" y="123"/>
    </contour>
    <contour>
      <point x="316" y="686" type="qcurve" smooth="yes"/>
      <point x="295" y="686"/>
      <point x="265" y="656"/>
      <point x="265" y="635" type="qcurve" smooth="yes"/>
      <point x="265" y="614"/>
      <point x="295" y="584"/>
      <point x="316" y="584" type="qcurve" smooth="yes"/>
      <point x="337" y="584"/>
      <point x="367" y="614"/>
      <point x="367" y="635" type="qcurve" smooth="yes"/>
      <point x="367" y="656"/>
      <point x="337" y="686"/>
    </contour>
    <contour>
      <point x="301" y="559" type="line"/>
      <point x="274" y="565"/>
      <point x="241" y="608"/>
      <point x="241" y="635" type="qcurve" smooth="yes"/>
      <point x="241" y="666"/>
      <point x="285" y="710"/>
      <point x="316" y="710" type="qcurve" smooth="yes"/>
      <point x="344" y="710"/>
      <point x="385" y="675"/>
      <point x="390" y="647" type="qcurve"/>
      <point x="391" y="623" type="line"/>
      <point x="382" y="587"/>
      <point x="346" y="566"/>
      <point x="328" y="562" type="qcurve"/>
      <point x="328" y="145" type="line"/>
      <point x="353" y="138"/>
      <point x="386" y="97"/>
      <point x="386" y="73" type="qcurve" smooth="yes"/>
      <point x="386" y="44"/>
      <point x="344" y="0"/>
      <point x="313" y="0" type="qcurve" smooth="yes"/>
      <point x="283" y="0"/>
      <point x="237" y="44"/>
      <point x="237" y="72" type="qcurve" smooth="yes"/>
      <point x="237" y="100"/>
      <point x="273" y="142"/>
      <point x="301" y="146" type="qcurve"/>
    </contour>
    <contour>
      <point x="526" y="586" type="qcurve" smooth="yes"/>
      <point x="505" y="586"/>
      <point x="475" y="616"/>
      <point x="475" y="637" type="qcurve" smooth="yes"/>
      <point x="475" y="658"/>
      <point x="505" y="688"/>
      <point x="526" y="688" type="qcurve" smooth="yes"/>
      <point x="547" y="688"/>
      <point x="577" y="658"/>
      <point x="577" y="637" type="qcurve" smooth="yes"/>
      <point x="577" y="616"/>
      <point x="547" y="586"/>
    </contour>
    <contour>
      <point x="526" y="2" type="qcurve" smooth="yes"/>
      <point x="557" y="2"/>
      <point x="601" y="46"/>
      <point x="601" y="77" type="qcurve" smooth="yes"/>
      <point x="601" y="637" type="line" smooth="yes"/>
      <point x="601" y="668"/>
      <point x="557" y="712"/>
      <point x="526" y="712" type="qcurve" smooth="yes"/>
      <point x="495" y="712"/>
      <point x="451" y="668"/>
      <point x="451" y="637" type="qcurve" smooth="yes"/>
      <point x="451" y="606"/>
      <point x="495" y="562"/>
      <point x="526" y="562" type="qcurve" smooth="yes"/>
      <point x="554" y="562"/>
      <point x="574" y="579" type="qcurve"/>
      <point x="574" y="135" type="line"/>
      <point x="554" y="152"/>
      <point x="526" y="152" type="qcurve" smooth="yes"/>
      <point x="495" y="152"/>
      <point x="451" y="108"/>
      <point x="451" y="77" type="qcurve" smooth="yes"/>
      <point x="451" y="46"/>
      <point x="495" y="2"/>
    </contour>
    <contour>
      <point x="526" y="26" type="qcurve" smooth="yes"/>
      <point x="505" y="26"/>
      <point x="475" y="56"/>
      <point x="475" y="77" type="qcurve" smooth="yes"/>
      <point x="475" y="98"/>
      <point x="505" y="128"/>
      <point x="526" y="128" type="qcurve" smooth="yes"/>
      <point x="547" y="128"/>
      <point x="577" y="98"/>
      <point x="577" y="77" type="qcurve" smooth="yes"/>
      <point x="577" y="56"/>
      <point x="547" y="26"/>
    </contour>
  </outline>
</glyph>
<glyph name="A" format="2">
  <advance width="896"/>
  <unicode hex="0041"/>
  <outline>
    <contour>
      <point x="376.687" y="9" type="qcurve"/>
      <point x="403.687" y="25"/>
      <point x="419.362" y="84.8097"/>
      <point x="403.687" y="112" type="qcurve" smooth="yes"/>
      <point x="354.687" y="197" type="line"/>
      <point x="387.162" y="253.244"/>
      <point x="440.48" y="298.633"/>
      <point x="482.64" y="325.959" type="curve" smooth="yes"/>
      <point x="519.27" y="349.701"/>
      <point x="578.142" y="363.075"/>
      <point x="609.298" y="372.659" type="curve" smooth="yes"/>
      <point x="634.112" y="380.291"/>
      <point x="706.045" y="389.605"/>
      <point x="745.76" y="390.33" type="curve"/>
      <point x="752.13" y="349.701"/>
      <point x="771.03" y="328.658" type="qcurve" smooth="yes"/>
      <point x="795.469" y="301.448"/>
      <point x="815.91" y="310.58" type="qcurve" smooth="yes"/>
      <point x="852.446" y="326.904"/>
      <point x="868.345" y="368.403" type="qcurve" smooth="yes"/>
      <point x="882.353" y="404.964"/>
      <point x="868.214" y="442.922" type="qcurve" smooth="yes"/>
      <point x="856.957" y="473.142"/>
      <point x="783.654" y="455.992"/>
      <point x="766.717" y="446.682" type="qcurve" smooth="yes"/>
      <point x="714.687" y="418.081"/>
      <point x="663.388" y="420.821"/>
      <point x="609.298" y="410.659" type="curve" smooth="yes"/>
      <point x="583.5" y="405.811"/>
      <point x="498.816" y="376.231"/>
      <point x="447.039" y="342.492" type="curve" smooth="yes"/>
      <point x="408.104" y="317.121"/>
      <point x="370.123" y="276.802"/>
      <point x="339.687" y="224" type="curve"/>
      <point x="280.449" y="289.969"/>
      <point x="258.687" y="323.531"/>
      <point x="233.246" y="361.103" type="curve" smooth="yes"/>
      <point x="202.966" y="405.82"/>
      <point x="178.21" y="455.935"/>
      <point x="151.103" y="502.643" type="curve"/>
      <point x="147.378" y="553.551"/>
      <point x="103.152" y="612.277"/>
      <point x="75.1031" y="596.362" type="qcurve" smooth="yes"/>
      <point x="39.8734" y="576.373"/>
      <point x="27.1031" y="539.362" type="qcurve" smooth="yes"/>
      <point x="12.6076" y="497.351"/>
      <point x="30.1031" y="461.362" type="qcurve" smooth="yes"/>
      <point x="39.8915" y="441.227"/>
      <point x="76.1031" y="446.362" type="qcurve" smooth="yes"/>
      <point x="104.107" y="450.333"/>
      <point x="135.103" y="477.362" type="qcurve"/>
      <point x="159.427" y="435.234"/>
      <point x="181.996" y="390.288"/>
      <point x="208.812" y="349.701" type="curve" smooth="yes"/>
      <point x="237.037" y="306.982"/>
      <point x="261.666" y="268.116"/>
      <point x="323.687" y="197" type="curve"/>
      <point x="274.687" y="112" type="line"/>
      <point x="269.687" y="104"/>
      <point x="266.687" y="94" type="qcurve"/>
      <point x="258.687" y="64"/>
      <point x="274.687" y="37" type="qcurve"/>
      <point x="289.687" y="10"/>
      <point x="349.687" y="-6"/>
    </contour>
    <contour>
      <point x="338.687" y="22" type="qcurve" smooth="yes"/>
      <point x="318.687" y="22"/>
      <point x="290.035" y="51.003"/>
      <point x="289.687" y="71" type="qcurve" smooth="yes"/>
      <point x="289.438" y="85.3475"/>
      <point x="295.687" y="96" type="qcurve" smooth="yes"/>
      <point x="339.687" y="171" type="line"/>
      <point x="382.687" y="96" type="line" smooth="yes"/>
      <point x="388.859" y="85.2355"/>
      <point x="388.687" y="71" type="qcurve" smooth="yes"/>
      <point x="388.446" y="51.0015"/>
      <point x="359.687" y="22"/>
    </contour>
    <contour>
      <point x="777.846" y="413.012" type="qcurve" smooth="yes"/>
      <point x="792.39" y="429.548"/>
      <point x="838.876" y="443.848"/>
      <point x="847.795" y="424.81" type="qcurve" smooth="yes"/>
      <point x="857.825" y="403.397"/>
      <point x="848.402" y="377.306" type="qcurve" smooth="yes"/>
      <point x="837.287" y="346.531"/>
      <point x="816.632" y="334.777" type="qcurve" smooth="yes"/>
      <point x="801.137" y="325.959"/>
      <point x="785.691" y="347.686" type="qcurve" smooth="yes"/>
      <point x="773.746" y="364.488"/>
      <point x="763.977" y="397.243"/>
    </contour>
    <contour>
      <point x="125.103" y="515.362" type="qcurve" smooth="yes"/>
      <point x="125.591" y="494.368"/>
      <point x="97.0538" y="475.555"/>
      <point x="77.1031" y="470.362" type="qcurve" smooth="yes"/>
      <point x="51.3049" y="463.647"/>
      <point x="45.1031" y="480.362" type="qcurve" smooth="yes"/>
      <point x="36.8365" y="502.643"/>
      <point x="48.1031" y="533.362" type="qcurve" smooth="yes"/>
      <point x="57.6551" y="559.407"/>
      <point x="79.1031" y="569.362" type="qcurve" smooth="yes"/>
      <point x="98.1727" y="578.214"/>
      <point x="124.591" y="537.379"/>
    </contour>
  </outline>
</glyph>
<glyph name="B" format="2">
  <advance width="640"/>
  <unicode hex="0042"/>
  <outline>
    <contour>
      <point x="395" y="0" type="line"/>
      <point x="395" y="325" type="line" smooth="yes"/>
      <point x="395" y="356"/>
      <point x="351" y="400"/>
      <point x="320" y="400" type="qcurve" smooth="yes"/>
      <point x="289" y="400"/>
      <point x="245" y="356"/>
      <point x="245" y="325" type="qcurve" smooth="yes"/>
      <point x="245" y="294"/>
      <point x="289" y="250"/>
      <point x="320" y="250" type="qcurve" smooth="yes"/>
      <point x="348" y="250"/>
      <point x="368" y="267" type="qcurve"/>
      <point x="368" y="0" type="line"/>
    </contour>
    <contour>
      <point x="320" y="274" type="qcurve" smooth="yes"/>
      <point x="299" y="274"/>
      <point x="269" y="304"/>
      <point x="269" y="325" type="qcurve" smooth="yes"/>
      <point x="269" y="346"/>
      <point x="299" y="376"/>
      <point x="320" y="376" type="qcurve" smooth="yes"/>
      <point x="341" y="376"/>
      <point x="371" y="346"/>
      <point x="371" y="325" type="qcurve" smooth="yes"/>
      <point x="371" y="304"/>
      <point x="341" y="274"/>
    </contour>
    <contour>
      <point x="95" y="400" type="qcurve" smooth="yes"/>
      <point x="64" y="400"/>
      <point x="20" y="356"/>
      <point x="20" y="325" type="qcurve" smooth="yes"/>
      <point x="20" y="294"/>
      <point x="64" y="250"/>
      <point x="95" y="250" type="qcurve" smooth="yes"/>
      <point x="126" y="250"/>
      <point x="170" y="294"/>
      <point x="170" y="325" type="qcurve" smooth="yes"/>
      <point x="170" y="356"/>
      <point x="126" y="400"/>
    </contour>
    <contour>
      <point x="95" y="274" type="qcurve" smooth="yes"/>
      <point x="74" y="274"/>
      <point x="44" y="304"/>
      <point x="44" y="325" type="qcurve" smooth="yes"/>
      <point x="44" y="346"/>
      <point x="74" y="376"/>
      <point x="95" y="376" type="qcurve" smooth="yes"/>
      <point x="116" y="376"/>
      <point x="146" y="346"/>
      <point x="146" y="325" type="qcurve" smooth="yes"/>
      <point x="146" y="304"/>
      <point x="116" y="274"/>
    </contour>
    <contour>
      <point x="620" y="0" type="line"/>
      <point x="620" y="325" type="line" smooth="yes"/>
      <point x="620" y="356"/>
      <point x="576" y="400"/>
      <point x="545" y="400" type="qcurve" smooth="yes"/>
      <point x="514" y="400"/>
      <point x="470" y="356"/>
      <point x="470" y="325" type="qcurve" smooth="yes"/>
      <point x="470" y="294"/>
      <point x="514" y="250"/>
      <point x="545" y="250" type="qcurve" smooth="yes"/>
      <point x="573" y="250"/>
      <point x="593" y="267" type="qcurve"/>
      <point x="593" y="0" type="line"/>
    </contour>
    <contour>
      <point x="545" y="274" type="qcurve" smooth="yes"/>
      <point x="524" y="274"/>
      <point x="494" y="304"/>
      <point x="494" y="325" type="qcurve" smooth="yes"/>
      <point x="494" y="346"/>
      <point x="524" y="376"/>
      <point x="545" y="376" type="qcurve" smooth="yes"/>
      <point x="566" y="376"/>
      <point x="596" y="346"/>
      <point x="596" y="325" type="qcurve" smooth="yes"/>
      <point x="596" y="304"/>
      <point x="566" y="274"/>
    </contour>
  </outline>
</glyph>
<glyph name="C" format="2">
  <advance width="1379"/>
  <unicode hex="0043"/>
  <outline>
    <contour>
      <point x="1348" y="62" type="curve"/>
      <point x="1358" y="66"/>
      <point x="1342" y="72"/>
      <point x="1352" y="74" type="curve"/>
      <point x="1262" y="76"/>
      <point x="1156" y="103"/>
      <point x="1066" y="123" type="curve" smooth="yes"/>
      <point x="988" y="140"/>
      <point x="913" y="153"/>
      <point x="854" y="166" type="curve"/>
      <point x="911" y="175"/>
      <point x="1017" y="209"/>
      <point x="1044" y="219" type="curve" smooth="yes"/>
      <point x="1106" y="243"/>
      <point x="1141" y="246"/>
      <point x="1209" y="297" type="curve"/>
      <point x="1204" y="270"/>
      <point x="1218" y="246" type="qcurve"/>
      <point x="1233" y="219"/>
      <point x="1293" y="203"/>
      <point x="1321" y="219" type="qcurve" smooth="yes"/>
      <point x="1347" y="234"/>
      <point x="1364" y="294"/>
      <point x="1348" y="322" type="qcurve" smooth="yes"/>
      <point x="1333" y="349"/>
      <point x="1271" y="367"/>
      <point x="1246" y="349" type="qcurve" smooth="yes"/>
      <point x="1161" y="288"/>
      <point x="1109" y="274"/>
      <point x="1030" y="242" type="curve" smooth="yes"/>
      <point x="988" y="225"/>
      <point x="879" y="191"/>
      <point x="791" y="174" type="curve"/>
      <point x="798" y="146" type="line"/>
      <point x="885" y="122"/>
      <point x="1031" y="103"/>
      <point x="1078" y="92" type="curve" smooth="yes"/>
      <point x="1125" y="81"/>
      <point x="1158" y="72"/>
      <point x="1238" y="62" type="curve"/>
      <point x="1037" y="45"/>
      <point x="754" y="39"/>
      <point x="673" y="65" type="curve" smooth="yes"/>
      <point x="615" y="83"/>
      <point x="619" y="100"/>
      <point x="592" y="129" type="curve" smooth="yes"/>
      <point x="558" y="165"/>
      <point x="561" y="220"/>
      <point x="626" y="277" type="curve"/>
      <point x="644" y="265"/>
      <point x="667" y="265" type="qcurve" smooth="yes"/>
      <point x="698" y="265"/>
      <point x="742" y="309"/>
      <point x="742" y="340" type="qcurve" smooth="yes"/>
      <point x="742" y="371"/>
      <point x="698" y="415"/>
      <point x="667" y="415" type="qcurve" smooth="yes"/>
      <point x="636" y="415"/>
      <point x="592" y="371"/>
      <point x="592" y="340" type="qcurve" smooth="yes"/>
      <point x="592" y="316"/>
      <point x="605" y="298" type="qcurve"/>
      <point x="509" y="229"/>
      <point x="529" y="153"/>
      <point x="558" y="108" type="curve" smooth="yes"/>
      <point x="581" y="72"/>
      <point x="640" y="39" type="qcurve"/>
      <point x="448" y="44"/>
      <point x="260" y="57"/>
      <point x="237" y="65" type="curve" smooth="yes"/>
      <point x="180" y="86"/>
      <point x="175" y="97"/>
      <point x="155" y="123" type="curve" smooth="yes"/>
      <point x="124" y="162"/>
      <point x="156" y="234"/>
      <point x="205" y="297" type="curve"/>
      <point x="237" y="297"/>
      <point x="266" y="296"/>
      <point x="298" y="297" type="curve"/>
      <point x="308" y="297"/>
      <point x="319" y="299" type="qcurve"/>
      <point x="349" y="307"/>
      <point x="363" y="335" type="qcurve"/>
      <point x="380" y="361"/>
      <point x="364" y="420"/>
      <point x="338" y="437" type="qcurve"/>
      <point x="310" y="451"/>
      <point x="251" y="436"/>
      <point x="235" y="408" type="qcurve" smooth="yes"/>
      <point x="186" y="323" type="line"/>
      <point x="64" y="316" type="line"/>
      <point x="49" y="307"/>
      <point x="35" y="306"/>
      <point x="20" y="297" type="curve"/>
      <point x="168" y="298" type="line"/>
      <point x="100" y="222"/>
      <point x="99" y="152"/>
      <point x="116" y="104" type="curve" smooth="yes"/>
      <point x="135" y="51"/>
      <point x="224" y="28" type="qcurve" smooth="yes"/>
      <point x="286" y="12"/>
      <point x="460" y="-1"/>
      <point x="567" y="-1" type="curve" smooth="yes"/>
      <point x="617" y="-1"/>
      <point x="743" y="1"/>
      <point x="852" y="4" type="curve"/>
      <point x="907" y="4"/>
      <point x="963" y="7"/>
      <point x="1006" y="9" type="curve"/>
      <point x="1006" y="9"/>
      <point x="1300" y="44"/>
    </contour>
    <contour>
      <point x="667" y="289" type="qcurve" smooth="yes"/>
      <point x="646" y="289"/>
      <point x="616" y="319"/>
      <point x="616" y="340" type="qcurve" smooth="yes"/>
      <point x="616" y="361"/>
      <point x="646" y="391"/>
      <point x="667" y="391" type="qcurve" smooth="yes"/>
      <point x="688" y="391"/>
      <point x="718" y="361"/>
      <point x="718" y="340" type="qcurve" smooth="yes"/>
      <point x="718" y="319"/>
      <point x="688" y="289"/>
    </contour>
    <contour>
      <point x="1239" y="258" type="qcurve" smooth="yes"/>
      <point x="1229" y="276"/>
      <point x="1238" y="317"/>
      <point x="1257" y="328" type="qcurve" smooth="yes"/>
      <point x="1275" y="339"/>
      <point x="1318" y="328"/>
      <point x="1328" y="310" type="qcurve" smooth="yes"/>
      <point x="1339" y="291"/>
      <point x="1327" y="251"/>
      <point x="1309" y="240" type="qcurve" smooth="yes"/>
      <point x="1290" y="229"/>
      <point x="1250" y="239"/>
    </contour>
    <contour>
      <point x="346" y="397" type="qcurve" smooth="yes"/>
      <point x="356" y="381"/>
      <point x="343" y="343"/>
      <point x="327" y="332" type="qcurve" smooth="yes"/>
      <point x="314" y="323"/>
      <point x="303" y="323" type="qcurve" smooth="yes"/>
      <point x="215" y="324" type="line"/>
      <point x="258" y="399" type="line" smooth="yes"/>
      <point x="265" y="411"/>
      <point x="276" y="417" type="qcurve" smooth="yes"/>
      <point x="295" y="427"/>
      <point x="334" y="418"/>
    </contour>
  </outline>
</glyph>
<glyph name="a" format="2">
  <advance width="313"/>
  <unicode hex="0061"/>
  <outline>
    <contour>
      <point x="293" y="75" type="qcurve" smooth="yes"/>
      <point x="293" y="106"/>
      <point x="249" y="150"/>
      <point x="218" y="150" type="qcurve" smooth="yes"/>
      <point x="190" y="150"/>
      <point x="170" y="133" type="qcurve"/>
      <point x="170" y="635" type="line" smooth="yes"/>
      <point x="170" y="666"/>
      <point x="126" y="710"/>
      <point x="95" y="710" type="qcurve" smooth="yes"/>
      <point x="64" y="710"/>
      <point x="20" y="666"/>
      <point x="20" y="635" type="qcurve" smooth="yes"/>
      <point x="20" y="604"/>
      <point x="64" y="560"/>
      <point x="95" y="560" type="qcurve" smooth="yes"/>
      <point x="123" y="560"/>
      <point x="143" y="577" type="qcurve"/>
      <point x="143" y="75" type="line" smooth="yes"/>
      <point x="143" y="44"/>
      <point x="187" y="0"/>
      <point x="218" y="0" type="qcurve" smooth="yes"/>
      <point x="249" y="0"/>
      <point x="293" y="44"/>
    </contour>
    <contour>
      <point x="95" y="584" type="qcurve" smooth="yes"/>
      <point x="74" y="584"/>
      <point x="44" y="614"/>
      <point x="44" y="635" type="qcurve" smooth="yes"/>
      <point x="44" y="656"/>
      <point x="74" y="686"/>
      <point x="95" y="686" type="qcurve" smooth="yes"/>
      <point x="116" y="686"/>
      <point x="146" y="656"/>
      <point x="146" y="635" type="qcurve" smooth="yes"/>
      <point x="146" y="614"/>
      <point x="116" y="584"/>
    </contour>
    <contour>
      <point x="218" y="24" type="qcurve" smooth="yes"/>
      <point x="197" y="24"/>
      <point x="167" y="54"/>
      <point x="167" y="75" type="qcurve" smooth="yes"/>
      <point x="167" y="96"/>
      <point x="197" y="126"/>
      <point x="218" y="126" type="qcurve" smooth="yes"/>
      <point x="239" y="126"/>
      <point x="269" y="96"/>
      <point x="269" y="75" type="qcurve" smooth="yes"/>
      <point x="269" y="54"/>
      <point x="239" y="24"/>
    </contour>
  </outline>
</glyph>
<glyph name="b" format="2">
  <advance width="751"/>
  <unicode hex="0062"/>
  <outline>
    <contour>
      <point x="413" y="37" type="qcurve"/>
      <point x="440" y="53"/>
      <point x="456" y="113"/>
      <point x="440" y="140" type="qcurve" smooth="yes"/>
      <point x="391" y="225" type="line"/>
      <point x="585" y="561" type="line"/>
      <point x="594" y="535"/>
      <point x="618" y="522" type="qcurve"/>
      <point x="645" y="506"/>
      <point x="705" y="523"/>
      <point x="720" y="550" type="qcurve"/>
      <point x="736" y="577"/>
      <point x="720" y="636"/>
      <point x="693" y="652" type="qcurve"/>
      <point x="666" y="667"/>
      <point x="606" y="651"/>
      <point x="591" y="625" type="qcurve" smooth="yes"/>
      <point x="376" y="252" type="line"/>
      <point x="160" y="625" type="line" smooth="yes"/>
      <point x="145" y="652"/>
      <point x="85" y="668"/>
      <point x="58" y="652" type="qcurve"/>
      <point x="31" y="637"/>
      <point x="15" y="577"/>
      <point x="31" y="550" type="qcurve"/>
      <point x="46" y="523"/>
      <point x="106" y="507"/>
      <point x="133" y="522" type="qcurve"/>
      <point x="157" y="536"/>
      <point x="166" y="561" type="qcurve"/>
      <point x="360" y="225" type="line"/>
      <point x="311" y="140" type="line"/>
      <point x="306" y="132"/>
      <point x="303" y="122" type="qcurve"/>
      <point x="295" y="92"/>
      <point x="311" y="65" type="qcurve"/>
      <point x="326" y="38"/>
      <point x="386" y="22"/>
    </contour>
    <contour>
      <point x="375" y="50" type="qcurve" smooth="yes"/>
      <point x="355" y="50"/>
      <point x="326" y="79"/>
      <point x="326" y="99" type="qcurve" smooth="yes"/>
      <point x="326" y="113"/>
      <point x="332" y="124" type="qcurve" smooth="yes"/>
      <point x="376" y="199" type="line"/>
      <point x="419" y="124" type="line" smooth="yes"/>
      <point x="425" y="113"/>
      <point x="425" y="99" type="qcurve" smooth="yes"/>
      <point x="425" y="79"/>
      <point x="396" y="50"/>
    </contour>
    <contour>
      <point x="121" y="543" type="qcurve" smooth="yes"/>
      <point x="103" y="533"/>
      <point x="62" y="544"/>
      <point x="51" y="562" type="qcurve" smooth="yes"/>
      <point x="41" y="580"/>
      <point x="52" y="621"/>
      <point x="70" y="632" type="qcurve" smooth="yes"/>
      <point x="88" y="642"/>
      <point x="129" y="631"/>
      <point x="140" y="613" type="qcurve" smooth="yes"/>
      <point x="150" y="595"/>
      <point x="139" y="554"/>
    </contour>
    <contour>
      <point x="630" y="543" type="qcurve" smooth="yes"/>
      <point x="612" y="553"/>
      <point x="601" y="595"/>
      <point x="611" y="613" type="qcurve" smooth="yes"/>
      <point x="622" y="631"/>
      <point x="663" y="642"/>
      <point x="681" y="632" type="qcurve" smooth="yes"/>
      <point x="699" y="621"/>
      <point x="710" y="579"/>
      <point x="700" y="562" type="qcurve" smooth="yes"/>
      <point x="689" y="543"/>
      <point x="648" y="532"/>
    </contour>
  </outline>
</glyph>
<glyph name="c" format="2">
  <advance width="697"/>
  <unicode hex="0063"/>
  <outline>
    <contour>
      <point x="551" y="75" type="qcurve" smooth="yes"/>
      <point x="551" y="96"/>
      <point x="581" y="126"/>
      <point x="602" y="126" type="qcurve" smooth="yes"/>
      <point x="623" y="126"/>
      <point x="653" y="96"/>
      <point x="653" y="75" type="qcurve" smooth="yes"/>
      <point x="653" y="54"/>
      <point x="623" y="24"/>
      <point x="602" y="24" type="qcurve" smooth="yes"/>
      <point x="581" y="24"/>
      <point x="551" y="54"/>
    </contour>
    <contour>
      <point x="602" y="0" type="curve" smooth="yes"/>
      <point x="633" y="0"/>
      <point x="677" y="44"/>
      <point x="677" y="75" type="qcurve" smooth="yes"/>
      <point x="677" y="106"/>
      <point x="633" y="150"/>
      <point x="602" y="150" type="qcurve" smooth="yes"/>
      <point x="571" y="150"/>
      <point x="527" y="106"/>
      <point x="527" y="75" type="qcurve" smooth="yes"/>
      <point x="527" y="47"/>
      <point x="544" y="27" type="qcurve"/>
      <point x="446" y="27"/>
      <point x="417" y="27"/>
      <point x="319" y="27" type="curve" smooth="yes"/>
      <point x="267" y="27"/>
      <point x="183" y="46"/>
      <point x="145" y="66" type="curve"/>
      <point x="172" y="97"/>
      <point x="176" y="125" type="qcurve" smooth="yes"/>
      <point x="181" y="161"/>
      <point x="161" y="171" type="qcurve" smooth="yes"/>
      <point x="124" y="190"/>
      <point x="83" y="175" type="qcurve" smooth="yes"/>
      <point x="46" y="162"/>
      <point x="26" y="127" type="qcurve" smooth="yes"/>
      <point x="10" y="99"/>
      <point x="70" y="64"/>
      <point x="101" y="50" type="qcurve" smooth="yes"/>
      <point x="169" y="19"/>
      <point x="248" y="0"/>
      <point x="319" y="0" type="curve" smooth="yes"/>
      <point x="436" y="0"/>
      <point x="485" y="0"/>
    </contour>
    <contour>
      <point x="107" y="77" type="qcurve" smooth="yes"/>
      <point x="86" y="77"/>
      <point x="44" y="104"/>
      <point x="53" y="123" type="qcurve" smooth="yes"/>
      <point x="64" y="145"/>
      <point x="90" y="154" type="qcurve" smooth="yes"/>
      <point x="120" y="164"/>
      <point x="141" y="156" type="qcurve" smooth="yes"/>
      <point x="158" y="150"/>
      <point x="152" y="125" type="qcurve" smooth="yes"/>
      <point x="147" y="105"/>
      <point x="128" y="77"/>
    </contour>
  </outline>
</glyph>
<glyph name="d" format="2">
  <advance width="313"/>
  <unicode hex="0064"/>
  <outline>
    <contour>
      <point x="542" y="114" type="qcurve" smooth="yes"/>
      <point x="522" y="113"/>
      <point x="493" y="142"/>
      <point x="493" y="163" type="qcurve" smooth="yes"/>
      <point x="493" y="185"/>
      <point x="494" y="191"/>
      <point x="502" y="203" type="curve" smooth="yes"/>
      <point x="512" y="217"/>
      <point x="517" y="219"/>
      <point x="533" y="224" type="curve" smooth="yes"/>
      <point x="548" y="229"/>
      <point x="571" y="224"/>
      <point x="589" y="204" type="curve" smooth="yes"/>
      <point x="604" y="187"/>
      <point x="600" y="167" type="qcurve" smooth="yes"/>
      <point x="595" y="140"/>
      <point x="573" y="116"/>
    </contour>
    <contour>
      <point x="658" y="353" type="qcurve" smooth="yes"/>
      <point x="641" y="363"/>
      <point x="629" y="405"/>
      <point x="639" y="423" type="qcurve" smooth="yes"/>
      <point x="650" y="441"/>
      <point x="692" y="452"/>
      <point x="709" y="442" type="qcurve" smooth="yes"/>
      <point x="728" y="431"/>
      <point x="738" y="389"/>
      <point x="728" y="372" type="qcurve" smooth="yes"/>
      <point x="717" y="353"/>
      <point x="677" y="342"/>
    </contour>
    <contour>
      <point x="61" y="235" type="line"/>
      <point x="97" y="229"/>
      <point x="117" y="231"/>
      <point x="137" y="232" type="curve" smooth="yes"/>
      <point x="176" y="234"/>
      <point x="218" y="237"/>
      <point x="254" y="246" type="curve"/>
      <point x="305" y="242"/>
      <point x="351" y="234"/>
      <point x="386" y="232" type="curve" smooth="yes"/>
      <point x="419" y="230"/>
      <point x="458" y="226"/>
      <point x="492" y="225" type="curve"/>
      <point x="482" y="214"/>
      <point x="474" y="202"/>
      <point x="470" y="191" type="curve" smooth="yes"/>
      <point x="467" y="182"/>
      <point x="467" y="168"/>
      <point x="468" y="159" type="curve" smooth="yes"/>
      <point x="471" y="138"/>
      <point x="487" y="114" type="qcurve" smooth="yes"/>
      <point x="495" y="102"/>
      <point x="546" y="89"/>
      <point x="575" y="99" type="qcurve" smooth="yes"/>
      <point x="621" y="115"/>
      <point x="622" y="169" type="qcurve" smooth="yes"/>
      <point x="623" y="218"/>
      <point x="593" y="236" type="qcurve" smooth="yes"/>
      <point x="575" y="247"/>
      <point x="544" y="252" type="qcurve"/>
      <point x="613" y="371" type="line"/>
      <point x="623" y="345"/>
      <point x="646" y="332" type="qcurve" smooth="yes"/>
      <point x="674" y="316"/>
      <point x="733" y="333"/>
      <point x="748" y="360" type="qcurve" smooth="yes"/>
      <point x="764" y="387"/>
      <point x="749" y="446"/>
      <point x="721" y="462" type="qcurve" smooth="yes"/>
      <point x="695" y="477"/>
      <point x="634" y="461"/>
      <point x="619" y="435" type="qcurve" smooth="yes"/>
      <point x="514" y="252" type="line"/>
      <point x="475" y="250"/>
      <point x="432" y="256"/>
      <point x="394" y="257" type="curve" smooth="yes"/>
      <point x="362" y="258"/>
      <point x="304" y="265"/>
      <point x="276" y="271" type="curve"/>
      <point x="289" y="276"/>
      <point x="291" y="283"/>
      <point x="297" y="293" type="curve" smooth="yes"/>
      <point x="305" y="306"/>
      <point x="310" y="315"/>
      <point x="314" y="326" type="curve" smooth="yes"/>
      <point x="317" y="335"/>
      <point x="317" y="349"/>
      <point x="316" y="358" type="curve" smooth="yes"/>
      <point x="313" y="379"/>
      <point x="297" y="403" type="qcurve" smooth="yes"/>
      <point x="289" y="415"/>
      <point x="238" y="428"/>
      <point x="209" y="418" type="qcurve" smooth="yes"/>
      <point x="163" y="402"/>
      <point x="162" y="348" type="qcurve" smooth="yes"/>
      <point x="161" y="299"/>
      <point x="191" y="281" type="qcurve" smooth="yes"/>
      <point x="209" y="270"/>
      <point x="229" y="265" type="qcurve"/>
      <point x="196" y="258"/>
      <point x="166" y="254"/>
      <point x="134" y="253" type="curve" smooth="yes"/>
      <point x="114" y="252"/>
      <point x="95" y="253"/>
      <point x="59" y="261" type="curve"/>
      <point x="-26" y="310" type="line" smooth="yes"/>
      <point x="-52" y="325"/>
      <point x="-113" y="310"/>
      <point x="-129" y="283" type="qcurve" smooth="yes"/>
      <point x="-144" y="256"/>
      <point x="-127" y="196"/>
      <point x="-101" y="181" type="qcurve" smooth="yes"/>
      <point x="-73" y="164"/>
      <point x="-44" y="173" type="qcurve" smooth="yes"/>
      <point x="-34" y="176"/>
      <point x="-26" y="181" type="qcurve" smooth="yes"/>
    </contour>
    <contour>
      <point x="242" y="403" type="qcurve" smooth="yes"/>
      <point x="262" y="404"/>
      <point x="291" y="375"/>
      <point x="291" y="354" type="qcurve" smooth="yes"/>
      <point x="291" y="332"/>
      <point x="291" y="326"/>
      <point x="282" y="314" type="curve" smooth="yes"/>
      <point x="273" y="300"/>
      <point x="267" y="298"/>
      <point x="251" y="293" type="curve" smooth="yes"/>
      <point x="236" y="288"/>
      <point x="213" y="293"/>
      <point x="195" y="313" type="curve" smooth="yes"/>
      <point x="180" y="330"/>
      <point x="184" y="350" type="qcurve" smooth="yes"/>
      <point x="190" y="377"/>
      <point x="211" y="401"/>
    </contour>
    <contour>
      <point x="-116" y="245" type="qcurve" smooth="yes"/>
      <point x="-116" y="266"/>
      <point x="-87" y="294"/>
      <point x="-67" y="295" type="qcurve" smooth="yes"/>
      <point x="-53" y="295"/>
      <point x="-42" y="289" type="qcurve" smooth="yes"/>
      <point x="33" y="246" type="line"/>
      <point x="-42" y="202" type="line" smooth="yes"/>
      <point x="-53" y="196"/>
      <point x="-67" y="196" type="qcurve" smooth="yes"/>
      <point x="-87" y="197"/>
      <point x="-116" y="225"/>
    </contour>
  </outline>
</glyph>
<glyph name="e" format="2">
  <advance width="750"/>
  <unicode hex="0065"/>
  <outline>
    <contour>
      <point x="400" y="0" type="qcurve" smooth="yes"/>
      <point x="431" y="0"/>
      <point x="475" y="44"/>
      <point x="475" y="75" type="qcurve" smooth="yes"/>
      <point x="475" y="344" type="line"/>
      <point x="584" y="344" type="line"/>
      <point x="588" y="316"/>
      <point x="630" y="280"/>
      <point x="658" y="280" type="qcurve" smooth="yes"/>
      <point x="686" y="280"/>
      <point x="730" y="326"/>
      <point x="730" y="356" type="qcurve" smooth="yes"/>
      <point x="730" y="387"/>
      <point x="686" y="429"/>
      <point x="657" y="429" type="qcurve" smooth="yes"/>
      <point x="633" y="429"/>
      <point x="592" y="396"/>
      <point x="585" y="371" type="qcurve"/>
      <point x="475" y="371" type="line"/>
      <point x="475" y="635" type="line" smooth="yes"/>
      <point x="475" y="666"/>
      <point x="431" y="710"/>
      <point x="400" y="710" type="qcurve" smooth="yes"/>
      <point x="180" y="710" type="line" smooth="yes"/>
      <point x="149" y="710"/>
      <point x="105" y="666"/>
      <point x="105" y="635" type="qcurve" smooth="yes"/>
      <point x="105" y="604"/>
      <point x="149" y="560"/>
      <point x="180" y="560" type="qcurve" smooth="yes"/>
      <point x="211" y="560"/>
      <point x="255" y="604"/>
      <point x="255" y="635" type="qcurve" smooth="yes"/>
      <point x="255" y="663"/>
      <point x="238" y="683" type="qcurve"/>
      <point x="397" y="683" type="line" smooth="yes"/>
      <point x="418" y="683"/>
      <point x="448" y="653"/>
      <point x="448" y="632" type="qcurve" smooth="yes"/>
      <point x="448" y="371" type="line"/>
      <point x="-80" y="371" type="line"/>
      <point x="-95" y="344" type="line"/>
      <point x="448" y="344" type="line"/>
      <point x="448" y="133" type="line"/>
      <point x="428" y="150"/>
      <point x="400" y="150" type="qcurve" smooth="yes"/>
      <point x="369" y="150"/>
      <point x="325" y="106"/>
      <point x="325" y="75" type="qcurve" smooth="yes"/>
      <point x="325" y="44"/>
      <point x="369" y="0"/>
    </contour>
    <contour>
      <point x="400" y="24" type="qcurve" smooth="yes"/>
      <point x="379" y="24"/>
      <point x="349" y="54"/>
      <point x="349" y="75" type="qcurve" smooth="yes"/>
      <point x="349" y="96"/>
      <point x="379" y="126"/>
      <point x="400" y="126" type="qcurve" smooth="yes"/>
      <point x="421" y="126"/>
      <point x="451" y="96"/>
      <point x="451" y="75" type="qcurve" smooth="yes"/>
      <point x="451" y="54"/>
      <point x="421" y="24"/>
    </contour>
    <contour>
      <point x="231" y="635" type="qcurve" smooth="yes"/>
      <point x="231" y="614"/>
      <point x="201" y="584"/>
      <point x="180" y="584" type="qcurve" smooth="yes"/>
      <point x="159" y="584"/>
      <point x="129" y="614"/>
      <point x="129" y="635" type="qcurve" smooth="yes"/>
      <point x="129" y="656"/>
      <point x="159" y="686"/>
      <point x="180" y="686" type="qcurve" smooth="yes"/>
      <point x="201" y="686"/>
      <point x="231" y="656"/>
    </contour>
    <contour>
      <point x="658" y="304" type="qcurve" smooth="yes"/>
      <point x="637" y="304"/>
      <point x="607" y="334"/>
      <point x="607" y="355" type="qcurve" smooth="yes"/>
      <point x="607" y="376"/>
      <point x="637" y="406"/>
      <point x="658" y="406" type="qcurve" smooth="yes"/>
      <point x="679" y="406"/>
      <point x="709" y="376"/>
      <point x="709" y="355" type="qcurve" smooth="yes"/>
      <point x="709" y="334"/>
      <point x="679" y="304"/>
    </contour>
  </outline>
</glyph>
<glyph name="g" format="2">
  <advance width="889"/>
  <unicode hex="0067"/>
  <outline>
    <contour>
      <point x="513" y="50" type="qcurve" smooth="yes"/>
      <point x="493" y="50"/>
      <point x="464" y="79"/>
      <point x="464" y="99" type="qcurve" smooth="yes"/>
      <point x="464" y="113"/>
      <point x="470" y="124" type="qcurve" smooth="yes"/>
      <point x="514" y="199" type="line"/>
      <point x="557" y="124" type="line" smooth="yes"/>
      <point x="563" y="113"/>
      <point x="563" y="99" type="qcurve" smooth="yes"/>
      <point x="563" y="79"/>
      <point x="534" y="50"/>
    </contour>
    <contour>
      <point x="768" y="543" type="qcurve" smooth="yes"/>
      <point x="750" y="553"/>
      <point x="739" y="595"/>
      <point x="749" y="613" type="qcurve" smooth="yes"/>
      <point x="760" y="631"/>
      <point x="801" y="642"/>
      <point x="819" y="632" type="qcurve" smooth="yes"/>
      <point x="837" y="621"/>
      <point x="848" y="579"/>
      <point x="838" y="562" type="qcurve" smooth="yes"/>
      <point x="827" y="543"/>
      <point x="786" y="532"/>
    </contour>
    <contour>
      <point x="376" y="438" type="line"/>
      <point x="498" y="225" type="line"/>
      <point x="449" y="140" type="line" smooth="yes"/>
      <point x="444" y="132"/>
      <point x="441" y="122" type="qcurve" smooth="yes"/>
      <point x="433" y="92"/>
      <point x="449" y="65" type="qcurve" smooth="yes"/>
      <point x="464" y="38"/>
      <point x="524" y="22"/>
      <point x="551" y="37" type="qcurve" smooth="yes"/>
      <point x="578" y="53"/>
      <point x="594" y="113"/>
      <point x="578" y="140" type="qcurve" smooth="yes"/>
      <point x="529" y="225" type="line"/>
      <point x="723" y="561" type="line"/>
      <point x="732" y="535"/>
      <point x="756" y="522" type="qcurve" smooth="yes"/>
      <point x="783" y="506"/>
      <point x="843" y="523"/>
      <point x="858" y="550" type="qcurve" smooth="yes"/>
      <point x="874" y="577"/>
      <point x="858" y="636"/>
      <point x="831" y="652" type="qcurve" smooth="yes"/>
      <point x="804" y="667"/>
      <point x="744" y="651"/>
      <point x="729" y="625" type="qcurve" smooth="yes"/>
      <point x="514" y="252" type="line"/>
      <point x="391" y="465" type="line"/>
      <point x="440" y="550" type="line" smooth="yes"/>
      <point x="456" y="577"/>
      <point x="440" y="637"/>
      <point x="413" y="653" type="qcurve" smooth="yes"/>
      <point x="386" y="668"/>
      <point x="326" y="652"/>
      <point x="311" y="625" type="qcurve" smooth="yes"/>
      <point x="295" y="598"/>
      <point x="303" y="568" type="qcurve" smooth="yes"/>
      <point x="306" y="558"/>
      <point x="311" y="550" type="qcurve" smooth="yes"/>
      <point x="360" y="465" type="line"/>
      <point x="166" y="129" type="line"/>
      <point x="157" y="154"/>
      <point x="133" y="168" type="qcurve" smooth="yes"/>
      <point x="106" y="183"/>
      <point x="46" y="167"/>
      <point x="31" y="140" type="qcurve" smooth="yes"/>
      <point x="15" y="113"/>
      <point x="31" y="53"/>
      <point x="58" y="38" type="qcurve" smooth="yes"/>
      <point x="85" y="22"/>
      <point x="145" y="38"/>
      <point x="160" y="65" type="qcurve" smooth="yes"/>
    </contour>
    <contour>
      <point x="375" y="640" type="qcurve" smooth="yes"/>
      <point x="396" y="640"/>
      <point x="425" y="611"/>
      <point x="425" y="591" type="qcurve" smooth="yes"/>
      <point x="425" y="577"/>
      <point x="419" y="566" type="qcurve" smooth="yes"/>
      <point x="376" y="491" type="line"/>
      <point x="332" y="566" type="line" smooth="yes"/>
      <point x="326" y="577"/>
      <point x="326" y="591" type="qcurve" smooth="yes"/>
      <point x="326" y="611"/>
      <point x="355" y="640"/>
    </contour>
    <contour>
      <point x="121" y="147" type="qcurve" smooth="yes"/>
      <point x="139" y="136"/>
      <point x="150" y="95"/>
      <point x="140" y="77" type="qcurve" smooth="yes"/>
      <point x="129" y="59"/>
      <point x="88" y="48"/>
      <point x="70" y="58" type="qcurve" smooth="yes"/>
      <point x="52" y="69"/>
      <point x="41" y="110"/>
      <point x="51" y="128" type="qcurve" smooth="yes"/>
      <point x="62" y="146"/>
      <point x="103" y="157"/>
    </contour>
  </outline>
</glyph>
<glyph name="h" format="2">
  <advance width="676"/>
  <unicode hex="0068"/>
  <outline>
    <contour>
      <point x="129" y="455" type="qcurve" smooth="yes"/>
      <point x="118" y="436"/>
      <point x="78" y="426"/>
      <point x="59" y="437" type="qcurve" smooth="yes"/>
      <point x="41" y="448"/>
      <point x="29" y="488"/>
      <point x="40" y="507" type="qcurve" smooth="yes"/>
      <point x="50" y="525"/>
      <point x="92" y="536"/>
      <point x="111" y="525" type="qcurve" smooth="yes"/>
      <point x="129" y="514"/>
      <point x="139" y="473"/>
    </contour>
    <contour>
      <point x="148" y="162" type="qcurve" smooth="yes"/>
      <point x="147" y="140"/>
      <point x="117" y="111"/>
      <point x="96" y="111" type="qcurve" smooth="yes"/>
      <point x="75" y="111"/>
      <point x="44" y="140"/>
      <point x="44" y="163" type="qcurve" smooth="yes"/>
      <point x="44" y="182"/>
      <point x="74" y="213"/>
      <point x="96" y="213" type="qcurve" smooth="yes"/>
      <point x="117" y="213"/>
      <point x="148" y="182"/>
    </contour>
    <contour>
      <point x="649" y="209" type="line"/>
      <point x="656" y="237" type="line"/>
      <point x="122" y="546" type="line" smooth="yes"/>
      <point x="95" y="561"/>
      <point x="35" y="546"/>
      <point x="20" y="519" type="qcurve" smooth="yes"/>
      <point x="4" y="491"/>
      <point x="20" y="431"/>
      <point x="47" y="416" type="qcurve" smooth="yes"/>
      <point x="74" y="400"/>
      <point x="135" y="416"/>
      <point x="150" y="443" type="qcurve" smooth="yes"/>
      <point x="164" y="467"/>
      <point x="159" y="494" type="qcurve"/>
      <point x="596" y="240" type="line"/>
      <point x="96" y="237" type="line" smooth="yes"/>
      <point x="65" y="237"/>
      <point x="20" y="193"/>
      <point x="20" y="162" type="qcurve" smooth="yes"/>
      <point x="21" y="131"/>
      <point x="64" y="87"/>
      <point x="95" y="87" type="qcurve" smooth="yes"/>
      <point x="126" y="87"/>
      <point x="171" y="131"/>
      <point x="171" y="162" type="qcurve" smooth="yes"/>
      <point x="171" y="190"/>
      <point x="154" y="210" type="qcurve"/>
    </contour>
  </outline>
</glyph>
<glyph name="i" format="2">
  <advance width="470"/>
  <unicode hex="0069"/>
  <outline>
    <contour>
      <point x="17" y="635" type="qcurve" smooth="yes"/>
      <point x="17" y="80" type="line" smooth="yes"/>
      <point x="17" y="49"/>
      <point x="61" y="5"/>
      <point x="92" y="5" type="qcurve" smooth="yes"/>
      <point x="375" y="5" type="line" smooth="yes"/>
      <point x="406" y="5"/>
      <point x="450" y="49"/>
      <point x="450" y="80" type="qcurve" smooth="yes"/>
      <point x="450" y="111"/>
      <point x="406" y="155"/>
      <point x="375" y="155" type="qcurve" smooth="yes"/>
      <point x="344" y="155"/>
      <point x="300" y="111"/>
      <point x="300" y="80" type="qcurve" smooth="yes"/>
      <point x="300" y="52"/>
      <point x="317" y="32" type="qcurve"/>
      <point x="95" y="32" type="line" smooth="yes"/>
      <point x="74" y="32"/>
      <point x="44" y="62"/>
      <point x="44" y="83" type="qcurve" smooth="yes"/>
      <point x="44" y="344" type="line"/>
      <point x="301" y="344" type="line"/>
      <point x="305" y="316"/>
      <point x="347" y="280"/>
      <point x="375" y="280" type="qcurve" smooth="yes"/>
      <point x="403" y="280"/>
      <point x="447" y="326"/>
      <point x="447" y="356" type="qcurve" smooth="yes"/>
      <point x="447" y="387"/>
      <point x="403" y="429"/>
      <point x="374" y="429" type="qcurve" smooth="yes"/>
      <point x="350" y="429"/>
      <point x="309" y="396"/>
      <point x="302" y="371" type="qcurve"/>
      <point x="44" y="371" type="line"/>
      <point x="44" y="632" type="line" smooth="yes"/>
      <point x="44" y="653"/>
      <point x="74" y="683"/>
      <point x="95" y="683" type="qcurve" smooth="yes"/>
      <point x="317" y="683" type="line"/>
      <point x="300" y="663"/>
      <point x="300" y="635" type="qcurve" smooth="yes"/>
      <point x="300" y="604"/>
      <point x="344" y="560"/>
      <point x="375" y="560" type="qcurve" smooth="yes"/>
      <point x="406" y="560"/>
      <point x="450" y="604"/>
      <point x="450" y="635" type="qcurve" smooth="yes"/>
      <point x="450" y="666"/>
      <point x="406" y="710"/>
      <point x="375" y="710" type="qcurve" smooth="yes"/>
      <point x="92" y="710" type="line" smooth="yes"/>
      <point x="61" y="710"/>
      <point x="17" y="666"/>
    </contour>
    <contour>
      <point x="324" y="635" type="qcurve" smooth="yes"/>
      <point x="324" y="656"/>
      <point x="354" y="686"/>
      <point x="375" y="686" type="qcurve" smooth="yes"/>
      <point x="396" y="686"/>
      <point x="426" y="656"/>
      <point x="426" y="635" type="qcurve" smooth="yes"/>
      <point x="426" y="614"/>
      <point x="396" y="584"/>
      <point x="375" y="584" type="qcurve" smooth="yes"/>
      <point x="354" y="584"/>
      <point x="324" y="614"/>
    </contour>
    <contour>
      <point x="324" y="80" type="qcurve" smooth="yes"/>
      <point x="324" y="101"/>
      <point x="354" y="131"/>
      <point x="375" y="131" type="qcurve" smooth="yes"/>
      <point x="396" y="131"/>
      <point x="426" y="101"/>
      <point x="426" y="80" type="qcurve" smooth="yes"/>
      <point x="426" y="59"/>
      <point x="396" y="29"/>
      <point x="375" y="29" type="qcurve" smooth="yes"/>
      <point x="354" y="29"/>
      <point x="324" y="59"/>
    </contour>
    <contour>
      <point x="375" y="304" type="qcurve" smooth="yes"/>
      <point x="354" y="304"/>
      <point x="324" y="334"/>
      <point x="324" y="355" type="qcurve" smooth="yes"/>
      <point x="324" y="376"/>
      <point x="354" y="406"/>
      <point x="375" y="406" type="qcurve" smooth="yes"/>
      <point x="396" y="406"/>
      <point x="426" y="376"/>
      <point x="426" y="355" type="qcurve" smooth="yes"/>
      <point x="426" y="334"/>
      <point x="396" y="304"/>
    </contour>
  </outline>
</glyph>
<glyph name="j" format="2">
  <advance width="533"/>
  <unicode hex="006A"/>
  <outline>
    <contour>
      <point x="513" y="75" type="qcurve" smooth="yes"/>
      <point x="513" y="106"/>
      <point x="469" y="150"/>
      <point x="438" y="150" type="qcurve" smooth="yes"/>
      <point x="390" y="150" type="line"/>
      <point x="390" y="560" type="line"/>
      <point x="438" y="560" type="line" smooth="yes"/>
      <point x="469" y="560"/>
      <point x="513" y="604"/>
      <point x="513" y="635" type="qcurve" smooth="yes"/>
      <point x="513" y="666"/>
      <point x="469" y="710"/>
      <point x="438" y="710" type="qcurve" smooth="yes"/>
      <point x="407" y="710"/>
      <point x="363" y="666"/>
      <point x="363" y="635" type="qcurve" smooth="yes"/>
      <point x="363" y="587" type="line"/>
      <point x="158" y="587" type="line"/>
      <point x="170" y="613"/>
      <point x="170" y="635" type="qcurve" smooth="yes"/>
      <point x="170" y="666"/>
      <point x="126" y="710"/>
      <point x="95" y="710" type="qcurve" smooth="yes"/>
      <point x="64" y="710"/>
      <point x="20" y="666"/>
      <point x="20" y="635" type="qcurve" smooth="yes"/>
      <point x="20" y="604"/>
      <point x="64" y="561"/>
      <point x="95" y="560" type="qcurve" smooth="yes"/>
      <point x="111" y="560"/>
      <point x="126" y="567" type="qcurve"/>
      <point x="105" y="538"/>
      <point x="73" y="508" type="qcurve" smooth="yes"/>
      <point x="50" y="486"/>
      <point x="22" y="467" type="qcurve"/>
      <point x="22" y="458" type="line"/>
      <point x="113" y="514"/>
      <point x="143" y="560" type="qcurve"/>
      <point x="363" y="560" type="line"/>
      <point x="363" y="75" type="line" smooth="yes"/>
      <point x="363" y="44"/>
      <point x="407" y="0"/>
      <point x="438" y="0" type="qcurve" smooth="yes"/>
      <point x="469" y="0"/>
      <point x="513" y="44"/>
    </contour>
    <contour>
      <point x="146" y="635" type="qcurve" smooth="yes"/>
      <point x="146" y="614"/>
      <point x="116" y="584"/>
      <point x="95" y="584" type="qcurve" smooth="yes"/>
      <point x="74" y="584"/>
      <point x="44" y="614"/>
      <point x="44" y="635" type="qcurve" smooth="yes"/>
      <point x="44" y="656"/>
      <point x="74" y="686"/>
      <point x="95" y="686" type="qcurve" smooth="yes"/>
      <point x="116" y="686"/>
      <point x="146" y="656"/>
    </contour>
    <contour>
      <point x="489" y="635" type="qcurve" smooth="yes"/>
      <point x="489" y="614"/>
      <point x="459" y="584"/>
      <point x="438" y="584" type="qcurve" smooth="yes"/>
      <point x="417" y="584"/>
      <point x="387" y="614"/>
      <point x="387" y="635" type="qcurve" smooth="yes"/>
      <point x="387" y="656"/>
      <point x="417" y="686"/>
      <point x="438" y="686" type="qcurve" smooth="yes"/>
      <point x="459" y="686"/>
      <point x="489" y="656"/>
    </contour>
    <contour>
      <point x="489" y="75" type="qcurve" smooth="yes"/>
      <point x="489" y="54"/>
      <point x="459" y="24"/>
      <point x="438" y="24" type="qcurve" smooth="yes"/>
      <point x="417" y="24"/>
      <point x="387" y="54"/>
      <point x="387" y="75" type="qcurve" smooth="yes"/>
      <point x="387" y="96"/>
      <point x="417" y="126"/>
      <point x="438" y="126" type="qcurve" smooth="yes"/>
      <point x="459" y="126"/>
      <point x="489" y="96"/>
    </contour>
  </outline>
</glyph>
<glyph name="k" format="2">
  <advance width="750"/>
  <unicode hex="006B"/>
  <outline>
    <contour>
      <point x="730" y="75" type="qcurve" smooth="yes"/>
      <point x="730" y="106"/>
      <point x="686" y="150"/>
      <point x="655" y="150" type="qcurve" smooth="yes"/>
      <point x="170" y="150" type="line"/>
      <point x="170" y="560" type="line"/>
      <point x="655" y="560" type="line" smooth="yes"/>
      <point x="686" y="560"/>
      <point x="730" y="604"/>
      <point x="730" y="635" type="qcurve" smooth="yes"/>
      <point x="730" y="666"/>
      <point x="686" y="710"/>
      <point x="655" y="710" type="qcurve" smooth="yes"/>
      <point x="624" y="710"/>
      <point x="580" y="666"/>
      <point x="580" y="635" type="qcurve" smooth="yes"/>
      <point x="580" y="587" type="line"/>
      <point x="170" y="587" type="line"/>
      <point x="170" y="635" type="line" smooth="yes"/>
      <point x="170" y="666"/>
      <point x="126" y="710"/>
      <point x="95" y="710" type="qcurve" smooth="yes"/>
      <point x="64" y="710"/>
      <point x="20" y="666"/>
      <point x="20" y="635" type="qcurve" smooth="yes"/>
      <point x="20" y="604"/>
      <point x="64" y="560"/>
      <point x="95" y="560" type="qcurve" smooth="yes"/>
      <point x="143" y="560" type="line"/>
      <point x="143" y="150" type="line"/>
      <point x="95" y="150" type="line" smooth="yes"/>
      <point x="64" y="150"/>
      <point x="20" y="106"/>
      <point x="20" y="75" type="qcurve" smooth="yes"/>
      <point x="20" y="44"/>
      <point x="64" y="0"/>
      <point x="95" y="0" type="qcurve" smooth="yes"/>
      <point x="126" y="0"/>
      <point x="170" y="44"/>
      <point x="170" y="75" type="qcurve" smooth="yes"/>
      <point x="170" y="123" type="line"/>
      <point x="580" y="123" type="line"/>
      <point x="580" y="75" type="line" smooth="yes"/>
      <point x="580" y="44"/>
      <point x="624" y="0"/>
      <point x="655" y="0" type="qcurve" smooth="yes"/>
      <point x="686" y="0"/>
      <point x="730" y="44"/>
    </contour>
    <contour>
      <point x="146" y="635" type="qcurve" smooth="yes"/>
      <point x="146" y="614"/>
      <point x="116" y="584"/>
      <point x="95" y="584" type="qcurve" smooth="yes"/>
      <point x="74" y="584"/>
      <point x="44" y="614"/>
      <point x="44" y="635" type="qcurve" smooth="yes"/>
      <point x="44" y="656"/>
      <point x="74" y="686"/>
      <point x="95" y="686" type="qcurve" smooth="yes"/>
      <point x="116" y="686"/>
      <point x="146" y="656"/>
    </contour>
    <contour>
      <point x="706" y="635" type="qcurve" smooth="yes"/>
      <point x="706" y="614"/>
      <point x="676" y="584"/>
      <point x="655" y="584" type="qcurve" smooth="yes"/>
      <point x="634" y="584"/>
      <point x="604" y="614"/>
      <point x="604" y="635" type="qcurve" smooth="yes"/>
      <point x="604" y="656"/>
      <point x="634" y="686"/>
      <point x="655" y="686" type="qcurve" smooth="yes"/>
      <point x="676" y="686"/>
      <point x="706" y="656"/>
    </contour>
    <contour>
      <point x="146" y="75" type="qcurve" smooth="yes"/>
      <point x="146" y="54"/>
      <point x="116" y="24"/>
      <point x="95" y="24" type="qcurve" smooth="yes"/>
      <point x="74" y="24"/>
      <point x="44" y="54"/>
      <point x="44" y="75" type="qcurve" smooth="yes"/>
      <point x="44" y="96"/>
      <point x="74" y="126"/>
      <point x="95" y="126" type="qcurve" smooth="yes"/>
      <point x="116" y="126"/>
      <point x="146" y="96"/>
    </contour>
    <contour>
      <point x="706" y="75" type="qcurve" smooth="yes"/>
      <point x="706" y="54"/>
      <point x="676" y="24"/>
      <point x="655" y="24" type="qcurve" smooth="yes"/>
      <point x="634" y="24"/>
      <point x="604" y="54"/>
      <point x="604" y="75" type="qcurve" smooth="yes"/>
      <point x="604" y="96"/>
      <point x="634" y="126"/>
      <point x="655" y="126" type="qcurve" smooth="yes"/>
      <point x="676" y="126"/>
      <point x="706" y="96"/>
    </contour>
  </outline>
</glyph>
<glyph name="l" format="2">
  <advance width="470"/>
  <unicode hex="006C"/>
  <outline>
    <contour>
      <point x="450" y="635" type="line" smooth="yes"/>
      <point x="450" y="666"/>
      <point x="406" y="710"/>
      <point x="375" y="710" type="qcurve" smooth="yes"/>
      <point x="92" y="710" type="line" smooth="yes"/>
      <point x="61" y="710"/>
      <point x="17" y="666"/>
      <point x="17" y="635" type="qcurve" smooth="yes"/>
      <point x="17" y="604"/>
      <point x="61" y="560"/>
      <point x="92" y="560" type="qcurve" smooth="yes"/>
      <point x="123" y="560"/>
      <point x="167" y="604"/>
      <point x="167" y="635" type="qcurve" smooth="yes"/>
      <point x="167" y="663"/>
      <point x="150" y="683" type="qcurve"/>
      <point x="372" y="683" type="line" smooth="yes"/>
      <point x="393" y="683"/>
      <point x="423" y="653"/>
      <point x="423" y="632" type="qcurve" smooth="yes"/>
      <point x="423" y="371" type="line"/>
      <point x="165" y="371" type="line"/>
      <point x="158" y="396"/>
      <point x="117" y="429"/>
      <point x="93" y="429" type="qcurve" smooth="yes"/>
      <point x="64" y="429"/>
      <point x="20" y="387"/>
      <point x="20" y="356" type="qcurve" smooth="yes"/>
      <point x="20" y="326"/>
      <point x="64" y="280"/>
      <point x="92" y="280" type="qcurve" smooth="yes"/>
      <point x="120" y="280"/>
      <point x="162" y="316"/>
      <point x="166" y="344" type="qcurve"/>
      <point x="423" y="344" type="line"/>
      <point x="423" y="83" type="line" smooth="yes"/>
      <point x="423" y="62"/>
      <point x="393" y="32"/>
      <point x="372" y="32" type="qcurve" smooth="yes"/>
      <point x="150" y="32" type="line"/>
      <point x="167" y="52"/>
      <point x="167" y="80" type="qcurve" smooth="yes"/>
      <point x="167" y="111"/>
      <point x="123" y="155"/>
      <point x="92" y="155" type="qcurve" smooth="yes"/>
      <point x="61" y="155"/>
      <point x="17" y="111"/>
      <point x="17" y="80" type="qcurve" smooth="yes"/>
      <point x="17" y="49"/>
      <point x="61" y="5"/>
      <point x="92" y="5" type="qcurve" smooth="yes"/>
      <point x="375" y="5" type="line" smooth="yes"/>
      <point x="406" y="5"/>
      <point x="450" y="49"/>
      <point x="450" y="80" type="qcurve" smooth="yes"/>
    </contour>
    <contour>
      <point x="143" y="635" type="qcurve" smooth="yes"/>
      <point x="143" y="614"/>
      <point x="113" y="584"/>
      <point x="92" y="584" type="qcurve" smooth="yes"/>
      <point x="71" y="584"/>
      <point x="41" y="614"/>
      <point x="41" y="635" type="qcurve" smooth="yes"/>
      <point x="41" y="656"/>
      <point x="71" y="686"/>
      <point x="92" y="686" type="qcurve" smooth="yes"/>
      <point x="113" y="686"/>
      <point x="143" y="656"/>
    </contour>
    <contour>
      <point x="143" y="80" type="qcurve" smooth="yes"/>
      <point x="143" y="59"/>
      <point x="113" y="29"/>
      <point x="92" y="29" type="qcurve" smooth="yes"/>
      <point x="71" y="29"/>
      <point x="41" y="59"/>
      <point x="41" y="80" type="qcurve" smooth="yes"/>
      <point x="41" y="101"/>
      <point x="71" y="131"/>
      <point x="92" y="131" type="qcurve" smooth="yes"/>
      <point x="113" y="131"/>
      <point x="143" y="101"/>
    </contour>
    <contour>
      <point x="92" y="304" type="qcurve" smooth="yes"/>
      <point x="71" y="304"/>
      <point x="41" y="334"/>
      <point x="41" y="355" type="qcurve" smooth="yes"/>
      <point x="41" y="376"/>
      <point x="71" y="406"/>
      <point x="92" y="406" type="qcurve" smooth="yes"/>
      <point x="113" y="406"/>
      <point x="143" y="376"/>
      <point x="143" y="355" type="qcurve" smooth="yes"/>
      <point x="143" y="334"/>
      <point x="113" y="304"/>
    </contour>
  </outline>
</glyph>
<glyph name="m" format="2">
  <advance width="697"/>
  <unicode hex="006D"/>
  <outline>
    <contour>
      <point x="602" y="50" type="line" smooth="yes"/>
      <point x="633" y="50"/>
      <point x="677" y="94"/>
      <point x="677" y="125" type="qcurve" smooth="yes"/>
      <point x="677" y="156"/>
      <point x="633" y="200"/>
      <point x="602" y="200" type="qcurve" smooth="yes"/>
      <point x="571" y="200"/>
      <point x="527" y="156"/>
      <point x="527" y="125" type="qcurve" smooth="yes"/>
      <point x="527" y="97"/>
      <point x="544" y="77" type="qcurve"/>
      <point x="450" y="77" type="line"/>
      <point x="450" y="450" type="line"/>
      <point x="423" y="450" type="line"/>
      <point x="423" y="77" type="line"/>
      <point x="350" y="77" type="line"/>
      <point x="350" y="450" type="line"/>
      <point x="323" y="450" type="line"/>
      <point x="323" y="77" type="line"/>
      <point x="319" y="77" type="line" smooth="yes"/>
      <point x="267" y="77"/>
      <point x="183" y="96"/>
      <point x="145" y="116" type="curve"/>
      <point x="172" y="147"/>
      <point x="176" y="175" type="qcurve" smooth="yes"/>
      <point x="181" y="211"/>
      <point x="161" y="221" type="qcurve" smooth="yes"/>
      <point x="124" y="240"/>
      <point x="83" y="225" type="qcurve" smooth="yes"/>
      <point x="46" y="212"/>
      <point x="26" y="177" type="qcurve" smooth="yes"/>
      <point x="10" y="149"/>
      <point x="70" y="114"/>
      <point x="101" y="100" type="qcurve" smooth="yes"/>
      <point x="169" y="69"/>
      <point x="248" y="50"/>
      <point x="319" y="50" type="curve" smooth="yes"/>
      <point x="323" y="50" type="line"/>
      <point x="323" y="-67" type="line"/>
      <point x="303" y="-50"/>
      <point x="275" y="-50" type="qcurve" smooth="yes"/>
      <point x="244" y="-50"/>
      <point x="200" y="-94"/>
      <point x="200" y="-125" type="qcurve" smooth="yes"/>
      <point x="200" y="-156"/>
      <point x="244" y="-200"/>
      <point x="275" y="-200" type="qcurve" smooth="yes"/>
      <point x="306" y="-200"/>
      <point x="350" y="-156"/>
      <point x="350" y="-125" type="qcurve" smooth="yes"/>
      <point x="350" y="50" type="line"/>
      <point x="423" y="50" type="line"/>
      <point x="423" y="-125" type="line" smooth="yes"/>
      <point x="423" y="-156"/>
      <point x="467" y="-200"/>
      <point x="498" y="-200" type="qcurve" smooth="yes"/>
      <point x="529" y="-200"/>
      <point x="573" y="-156"/>
      <point x="573" y="-125" type="qcurve" smooth="yes"/>
      <point x="573" y="-94"/>
      <point x="529" y="-50"/>
      <point x="498" y="-50" type="qcurve" smooth="yes"/>
      <point x="470" y="-50"/>
      <point x="450" y="-67" type="qcurve"/>
      <point x="450" y="50" type="line"/>
    </contour>
    <contour>
      <point x="551" y="125" type="qcurve" smooth="yes"/>
      <point x="551" y="146"/>
      <point x="581" y="176"/>
      <point x="602" y="176" type="qcurve" smooth="yes"/>
      <point x="623" y="176"/>
      <point x="653" y="146"/>
      <point x="653" y="125" type="qcurve" smooth="yes"/>
      <point x="653" y="104"/>
      <point x="623" y="74"/>
      <point x="602" y="74" type="qcurve" smooth="yes"/>
      <point x="581" y="74"/>
      <point x="551" y="104"/>
    </contour>
    <contour>
      <point x="107" y="127" type="qcurve" smooth="yes"/>
      <point x="86" y="127"/>
      <point x="44" y="154"/>
      <point x="53" y="173" type="qcurve" smooth="yes"/>
      <point x="64" y="195"/>
      <point x="90" y="204" type="qcurve" smooth="yes"/>
      <point x="120" y="214"/>
      <point x="141" y="206" type="qcurve" smooth="yes"/>
      <point x="158" y="200"/>
      <point x="152" y="175" type="qcurve" smooth="yes"/>
      <point x="147" y="155"/>
      <point x="128" y="127"/>
    </contour>
    <contour>
      <point x="498" y="-176" type="qcurve" smooth="yes"/>
      <point x="477" y="-176"/>
      <point x="447" y="-146"/>
      <point x="447" y="-125" type="qcurve" smooth="yes"/>
      <point x="447" y="-104"/>
      <point x="477" y="-74"/>
      <point x="498" y="-74" type="qcurve" smooth="yes"/>
      <point x="519" y="-74"/>
      <point x="549" y="-104"/>
      <point x="549" y="-125" type="qcurve" smooth="yes"/>
      <point x="549" y="-146"/>
      <point x="519" y="-176"/>
    </contour>
    <contour>
      <point x="275" y="-176" type="qcurve" smooth="yes"/>
      <point x="254" y="-176"/>
      <point x="224" y="-146"/>
      <point x="224" y="-125" type="qcurve" smooth="yes"/>
      <point x="224" y="-104"/>
      <point x="254" y="-74"/>
      <point x="275" y="-74" type="qcurve" smooth="yes"/>
      <point x="296" y="-74"/>
      <point x="326" y="-104"/>
      <point x="326" y="-125" type="qcurve" smooth="yes"/>
      <point x="326" y="-146"/>
      <point x="296" y="-176"/>
    </contour>
  </outline>
</glyph>
<glyph name="n" format="2">
  <advance width="585"/>
  <unicode hex="006E"/>
  <outline>
    <contour>
      <point x="107" y="560" type="line"/>
      <point x="130.385" y="564.385"/>
      <point x="148" y="582" type="qcurve" smooth="yes"/>
      <point x="170" y="604"/>
      <point x="170" y="635" type="qcurve" smooth="yes"/>
      <point x="170" y="666"/>
      <point x="126" y="710"/>
      <point x="95" y="710" type="qcurve" smooth="yes"/>
      <point x="64" y="710"/>
      <point x="20" y="666"/>
      <point x="20" y="635" type="qcurve" smooth="yes"/>
      <point x="20" y="608"/>
      <point x="53" y="565"/>
      <point x="80" y="560" type="qcurve"/>
      <point x="80" y="75" type="line" smooth="yes"/>
      <point x="80" y="44"/>
      <point x="124" y="0"/>
      <point x="155" y="0" type="qcurve" smooth="yes"/>
      <point x="490" y="0" type="line" smooth="yes"/>
      <point x="521" y="0"/>
      <point x="565" y="44"/>
      <point x="565" y="75" type="qcurve" smooth="yes"/>
      <point x="565" y="355" type="line" smooth="yes"/>
      <point x="565" y="386"/>
      <point x="521" y="430"/>
      <point x="490" y="430" type="qcurve" smooth="yes"/>
      <point x="459" y="430"/>
      <point x="415" y="386"/>
      <point x="415" y="355" type="qcurve" smooth="yes"/>
      <point x="415" y="324"/>
      <point x="459" y="280"/>
      <point x="490" y="280" type="qcurve" smooth="yes"/>
      <point x="518" y="280"/>
      <point x="538" y="297" type="qcurve"/>
      <point x="538" y="78" type="line" smooth="yes"/>
      <point x="538" y="57"/>
      <point x="508" y="27"/>
      <point x="487" y="27" type="qcurve" smooth="yes"/>
      <point x="158" y="27" type="line" smooth="yes"/>
      <point x="137" y="27"/>
      <point x="107" y="57"/>
      <point x="107" y="78" type="qcurve" smooth="yes"/>
    </contour>
    <contour>
      <point x="490" y="304" type="qcurve" smooth="yes"/>
      <point x="469" y="304"/>
      <point x="439" y="334"/>
      <point x="439" y="355" type="qcurve" smooth="yes"/>
      <point x="439" y="376"/>
      <point x="469" y="406"/>
      <point x="490" y="406" type="qcurve" smooth="yes"/>
      <point x="511" y="406"/>
      <point x="541" y="376"/>
      <point x="541" y="355" type="qcurve" smooth="yes"/>
      <point x="541" y="334"/>
      <point x="511" y="304"/>
    </contour>
    <contour>
      <point x="95" y="584" type="qcurve" smooth="yes"/>
      <point x="74" y="584"/>
      <point x="44" y="614"/>
      <point x="44" y="635" type="qcurve" smooth="yes"/>
      <point x="44" y="656"/>
      <point x="74" y="686"/>
      <point x="95" y="686" type="qcurve" smooth="yes"/>
      <point x="116" y="686"/>
      <point x="146" y="656"/>
      <point x="146" y="635" type="qcurve" smooth="yes"/>
      <point x="146" y="614"/>
      <point x="116" y="584"/>
    </contour>
  </outline>
</glyph>
<glyph name="o" format="2">
  <advance width="750"/>
  <unicode hex="006F"/>
  <outline>
    <contour>
      <point x="176" y="635" type="qcurve" smooth="yes"/>
      <point x="176" y="614"/>
      <point x="146" y="584"/>
      <point x="125" y="584" type="qcurve" smooth="yes"/>
      <point x="104" y="584"/>
      <point x="74" y="614"/>
      <point x="74" y="635" type="qcurve" smooth="yes"/>
      <point x="74" y="656"/>
      <point x="104" y="686"/>
      <point x="125" y="686" type="qcurve" smooth="yes"/>
      <point x="146" y="686"/>
      <point x="176" y="656"/>
    </contour>
    <contour>
      <point x="706" y="75" type="qcurve" smooth="yes"/>
      <point x="706" y="54"/>
      <point x="676" y="24"/>
      <point x="655" y="24" type="qcurve" smooth="yes"/>
      <point x="634" y="24"/>
      <point x="604" y="54"/>
      <point x="604" y="75" type="qcurve" smooth="yes"/>
      <point x="604" y="96"/>
      <point x="634" y="126"/>
      <point x="655" y="126" type="qcurve" smooth="yes"/>
      <point x="676" y="126"/>
      <point x="706" y="96"/>
    </contour>
    <contour>
      <point x="655" y="0" type="qcurve" smooth="yes"/>
      <point x="686" y="0"/>
      <point x="730" y="44"/>
      <point x="730" y="75" type="qcurve" smooth="yes"/>
      <point x="730" y="106"/>
      <point x="686" y="150"/>
      <point x="655" y="150" type="qcurve" smooth="yes"/>
      <point x="607" y="150" type="line"/>
      <point x="607" y="710" type="line"/>
      <point x="580" y="710" type="line"/>
      <point x="580" y="150" type="line"/>
      <point x="251" y="150" type="line" smooth="yes"/>
      <point x="230" y="150"/>
      <point x="200" y="180"/>
      <point x="200" y="201" type="qcurve" smooth="yes"/>
      <point x="200" y="587" type="line"/>
      <point x="200" y="635" type="line" smooth="yes"/>
      <point x="200" y="666"/>
      <point x="156" y="710"/>
      <point x="125" y="710" type="qcurve" smooth="yes"/>
      <point x="94" y="710"/>
      <point x="50" y="666"/>
      <point x="50" y="635" type="qcurve" smooth="yes"/>
      <point x="50" y="604"/>
      <point x="94" y="560"/>
      <point x="125" y="560" type="qcurve" smooth="yes"/>
      <point x="170" y="560" type="line"/>
      <point x="170" y="198" type="line" smooth="yes"/>
      <point x="170" y="167"/>
      <point x="214" y="123"/>
      <point x="245" y="123" type="qcurve" smooth="yes"/>
      <point x="580" y="123" type="line"/>
      <point x="580" y="75" type="line" smooth="yes"/>
      <point x="580" y="44"/>
      <point x="624" y="0"/>
    </contour>
  </outline>
</glyph>
<glyph name="p" format="2">
  <advance width="608"/>
  <unicode hex="0070"/>
  <outline>
    <contour>
      <point x="291" y="106" type="curve"/>
      <point x="361" y="188"/>
      <point x="408" y="238"/>
      <point x="462" y="331" type="curve" smooth="yes"/>
      <point x="519" y="429"/>
      <point x="541" y="491"/>
      <point x="583" y="595" type="curve" smooth="yes"/>
      <point x="591" y="614"/>
      <point x="595" y="635" type="qcurve" smooth="yes"/>
      <point x="601" y="665"/>
      <point x="551" y="710"/>
      <point x="520" y="710" type="qcurve" smooth="yes"/>
      <point x="489" y="710"/>
      <point x="445" y="666"/>
      <point x="445" y="635" type="qcurve" smooth="yes"/>
      <point x="445" y="604"/>
      <point x="489" y="560"/>
      <point x="520" y="560" type="qcurve" smooth="yes"/>
      <point x="528" y="560"/>
      <point x="535" y="561" type="qcurve"/>
      <point x="503" y="476"/>
      <point x="469" y="406"/>
      <point x="436" y="349" type="curve" smooth="yes"/>
      <point x="408" y="300"/>
      <point x="369" y="244"/>
      <point x="300" y="164" type="curve"/>
      <point x="292" y="196"/>
      <point x="248" y="294"/>
      <point x="233" y="319" type="curve" smooth="yes"/>
      <point x="197" y="380"/>
      <point x="157" y="445"/>
      <point x="109" y="501" type="curve"/>
      <point x="115" y="500"/>
      <point x="123" y="500" type="qcurve" smooth="yes"/>
      <point x="154" y="500"/>
      <point x="198" y="544"/>
      <point x="198" y="575" type="qcurve" smooth="yes"/>
      <point x="198" y="606"/>
      <point x="154" y="650"/>
      <point x="123" y="650" type="qcurve" smooth="yes"/>
      <point x="92" y="650"/>
      <point x="48" y="606"/>
      <point x="48" y="575" type="qcurve" smooth="yes"/>
      <point x="48" y="562"/>
      <point x="50" y="549"/>
      <point x="57" y="539" type="curve" smooth="yes"/>
      <point x="122" y="445"/>
      <point x="174" y="350"/>
      <point x="198" y="307" type="curve" smooth="yes"/>
      <point x="214" y="279"/>
      <point x="275" y="134"/>
    </contour>
    <contour>
      <point x="520" y="584" type="qcurve" smooth="yes"/>
      <point x="499" y="584"/>
      <point x="469" y="614"/>
      <point x="469" y="635" type="qcurve" smooth="yes"/>
      <point x="469" y="656"/>
      <point x="499" y="686"/>
      <point x="520" y="686" type="qcurve" smooth="yes"/>
      <point x="541" y="686"/>
      <point x="571" y="656"/>
      <point x="571" y="635" type="qcurve" smooth="yes"/>
      <point x="571" y="614"/>
      <point x="541" y="584"/>
    </contour>
    <contour>
      <point x="123" y="524" type="qcurve" smooth="yes"/>
      <point x="102" y="524"/>
      <point x="72" y="554"/>
      <point x="72" y="575" type="qcurve" smooth="yes"/>
      <point x="72" y="596"/>
      <point x="102" y="626"/>
      <point x="123" y="626" type="qcurve" smooth="yes"/>
      <point x="144" y="626"/>
      <point x="174" y="596"/>
      <point x="174" y="575" type="qcurve" smooth="yes"/>
      <point x="174" y="554"/>
      <point x="144" y="524"/>
    </contour>
  </outline>
</glyph>
<glyph name="q" format="2">
  <advance width="670"/>
  <unicode hex="0071"/>
  <outline>
    <contour>
      <point x="575" y="0" type="qcurve" smooth="yes"/>
      <point x="606" y="0"/>
      <point x="650" y="44"/>
      <point x="650" y="75" type="qcurve" smooth="yes"/>
      <point x="650" y="106"/>
      <point x="606" y="150"/>
      <point x="575" y="150" type="qcurve" smooth="yes"/>
      <point x="530" y="150" type="line"/>
      <point x="530" y="369" type="line"/>
      <point x="650" y="369" type="line"/>
      <point x="635" y="396" type="line"/>
      <point x="530" y="396" type="line"/>
      <point x="530" y="635" type="line" smooth="yes"/>
      <point x="530" y="666"/>
      <point x="486" y="710"/>
      <point x="455" y="710" type="qcurve" smooth="yes"/>
      <point x="215" y="710" type="line" smooth="yes"/>
      <point x="184" y="710"/>
      <point x="140" y="666"/>
      <point x="140" y="635" type="qcurve" smooth="yes"/>
      <point x="140" y="396" type="line"/>
      <point x="35" y="396" type="line"/>
      <point x="20" y="369" type="line"/>
      <point x="140" y="369" type="line"/>
      <point x="140" y="150" type="line"/>
      <point x="95" y="150" type="line" smooth="yes"/>
      <point x="64" y="150"/>
      <point x="20" y="106"/>
      <point x="20" y="75" type="qcurve" smooth="yes"/>
      <point x="20" y="44"/>
      <point x="64" y="0"/>
      <point x="95" y="0" type="qcurve" smooth="yes"/>
      <point x="126" y="0"/>
      <point x="170" y="44"/>
      <point x="170" y="75" type="qcurve" smooth="yes"/>
      <point x="170" y="369" type="line"/>
      <point x="500" y="369" type="line"/>
      <point x="500" y="75" type="line" smooth="yes"/>
      <point x="500" y="44"/>
      <point x="544" y="0"/>
    </contour>
    <contour>
      <point x="170" y="396" type="line"/>
      <point x="170" y="632" type="line" smooth="yes"/>
      <point x="170" y="653"/>
      <point x="200" y="683"/>
      <point x="221" y="683" type="qcurve" smooth="yes"/>
      <point x="449" y="683" type="line" smooth="yes"/>
      <point x="470" y="683"/>
      <point x="500" y="653"/>
      <point x="500" y="632" type="qcurve" smooth="yes"/>
      <point x="500" y="396" type="line"/>
    </contour>
    <contour>
      <point x="146" y="75" type="qcurve" smooth="yes"/>
      <point x="146" y="54"/>
      <point x="116" y="24"/>
      <point x="95" y="24" type="qcurve" smooth="yes"/>
      <point x="74" y="24"/>
      <point x="44" y="54"/>
      <point x="44" y="75" type="qcurve" smooth="yes"/>
      <point x="44" y="96"/>
      <point x="74" y="126"/>
      <point x="95" y="126" type="qcurve" smooth="yes"/>
      <point x="116" y="126"/>
      <point x="146" y="96"/>
    </contour>
    <contour>
      <point x="524" y="75" type="qcurve" smooth="yes"/>
      <point x="524" y="96"/>
      <point x="554" y="126"/>
      <point x="575" y="126" type="qcurve" smooth="yes"/>
      <point x="596" y="126"/>
      <point x="626" y="96"/>
      <point x="626" y="75" type="qcurve" smooth="yes"/>
      <point x="626" y="54"/>
      <point x="596" y="24"/>
      <point x="575" y="24" type="qcurve" smooth="yes"/>
      <point x="554" y="24"/>
      <point x="524" y="54"/>
    </contour>
  </outline>
</glyph>
<glyph name="r" format="2">
  <advance width="630"/>
  <unicode hex="0072"/>
  <outline>
    <contour>
      <point x="490" y="553" type="qcurve" smooth="yes"/>
      <point x="480" y="571"/>
      <point x="489" y="612"/>
      <point x="508" y="623" type="qcurve" smooth="yes"/>
      <point x="526" y="634"/>
      <point x="569" y="623"/>
      <point x="579" y="605" type="qcurve" smooth="yes"/>
      <point x="590" y="586"/>
      <point x="578" y="546"/>
      <point x="560" y="535" type="qcurve" smooth="yes"/>
      <point x="541" y="524"/>
      <point x="501" y="534"/>
    </contour>
    <contour>
      <point x="338" y="36" type="curve" smooth="yes"/>
      <point x="319" y="31"/>
      <point x="247" y="24"/>
      <point x="214" y="24" type="curve" smooth="yes"/>
      <point x="176" y="24"/>
      <point x="139" y="34"/>
      <point x="125" y="40" type="curve" smooth="yes"/>
      <point x="82" y="60"/>
      <point x="75" y="69"/>
      <point x="65" y="88" type="qcurve" smooth="yes"/>
      <point x="55" y="108"/>
      <point x="47" y="148"/>
      <point x="47" y="169" type="curve" smooth="yes"/>
      <point x="47" y="187"/>
      <point x="51" y="217"/>
      <point x="65" y="236" type="curve" smooth="yes"/>
      <point x="75" y="250"/>
      <point x="88" y="260"/>
      <point x="116" y="277" type="qcurve"/>
      <point x="183" y="289"/>
      <point x="240" y="299"/>
      <point x="308" y="311" type="curve" smooth="yes"/>
      <point x="393" y="326"/>
      <point x="508" y="349"/>
      <point x="599" y="367" type="curve"/>
      <point x="610" y="369"/>
      <point x="593" y="377"/>
      <point x="603" y="379" type="curve"/>
      <point x="513" y="381"/>
      <point x="407" y="402"/>
      <point x="317" y="418" type="curve" smooth="yes"/>
      <point x="239" y="431"/>
      <point x="164" y="448"/>
      <point x="105" y="461" type="curve"/>
      <point x="162" y="470"/>
      <point x="268" y="504"/>
      <point x="295" y="514" type="curve" smooth="yes"/>
      <point x="357" y="538"/>
      <point x="392" y="541"/>
      <point x="460" y="592" type="curve"/>
      <point x="455" y="565"/>
      <point x="469" y="541" type="qcurve" smooth="yes"/>
      <point x="484" y="514"/>
      <point x="544" y="498"/>
      <point x="572" y="514" type="qcurve" smooth="yes"/>
      <point x="598" y="529"/>
      <point x="615" y="589"/>
      <point x="599" y="617" type="qcurve" smooth="yes"/>
      <point x="584" y="644"/>
      <point x="522" y="662"/>
      <point x="497" y="644" type="qcurve" smooth="yes"/>
      <point x="412" y="583"/>
      <point x="360" y="569"/>
      <point x="281" y="537" type="curve" smooth="yes"/>
      <point x="239" y="520"/>
      <point x="130" y="486"/>
      <point x="42" y="469" type="curve"/>
      <point x="49" y="441" type="line"/>
      <point x="136" y="417"/>
      <point x="280" y="393"/>
      <point x="329" y="387" type="curve" smooth="yes"/>
      <point x="372" y="382"/>
      <point x="447" y="367"/>
      <point x="517" y="367" type="curve"/>
      <point x="412" y="349"/>
      <point x="244" y="321"/>
      <point x="113" y="298" type="curve"/>
      <point x="75" y="281"/>
      <point x="53" y="256"/>
      <point x="38" y="233" type="qcurve" smooth="yes"/>
      <point x="26" y="214"/>
      <point x="20" y="186"/>
      <point x="20" y="169" type="curve" smooth="yes"/>
      <point x="20" y="147"/>
      <point x="29" y="106"/>
      <point x="38" y="85" type="curve" smooth="yes"/>
      <point x="47" y="65"/>
      <point x="75" y="32"/>
      <point x="122" y="13" type="qcurve" smooth="yes"/>
      <point x="137" y="7"/>
      <point x="176" y="-1"/>
      <point x="214" y="0" type="curve" smooth="yes"/>
      <point x="246" y="1"/>
      <point x="297" y="5"/>
      <point x="317" y="7" type="curve" smooth="yes"/>
      <point x="356" y="11"/>
      <point x="399" y="29"/>
      <point x="449" y="38" type="curve" smooth="yes"/>
      <point x="480" y="44"/>
      <point x="524" y="82"/>
      <point x="524" y="113" type="qcurve" smooth="yes"/>
      <point x="524" y="144"/>
      <point x="480" y="188"/>
      <point x="449" y="188" type="qcurve" smooth="yes"/>
      <point x="418" y="188"/>
      <point x="374" y="144"/>
      <point x="374" y="113" type="qcurve" smooth="yes"/>
      <point x="374" y="85"/>
      <point x="405" y="59" type="qcurve"/>
      <point x="391" y="51"/>
      <point x="361" y="42"/>
    </contour>
    <contour>
      <point x="398" y="113" type="qcurve" smooth="yes"/>
      <point x="398" y="134"/>
      <point x="428" y="164"/>
      <point x="449" y="164" type="qcurve" smooth="yes"/>
      <point x="470" y="164"/>
      <point x="500" y="134"/>
      <point x="500" y="113" type="qcurve" smooth="yes"/>
      <point x="500" y="92"/>
      <point x="470" y="62"/>
      <point x="449" y="62" type="qcurve" smooth="yes"/>
      <point x="428" y="62"/>
      <point x="398" y="92"/>
    </contour>
  </outline>
</glyph>
<glyph name="s" format="2">
  <advance width="1092"/>
  <unicode hex="0073"/>
  <outline>
    <contour>
      <point x="711" y="5" type="curve" smooth="yes"/>
      <point x="715" y="3"/>
      <point x="731" y="2"/>
      <point x="737" y="11" type="curve"/>
      <point x="737" y="11"/>
      <point x="749" y="28"/>
      <point x="750" y="29" type="curve"/>
      <point x="791" y="116"/>
      <point x="825" y="206"/>
      <point x="847" y="244" type="curve" smooth="yes"/>
      <point x="860" y="266"/>
      <point x="903" y="324"/>
      <point x="926" y="351" type="curve"/>
      <point x="935" y="325"/>
      <point x="959" y="312" type="qcurve" smooth="yes"/>
      <point x="986" y="296"/>
      <point x="1046" y="313"/>
      <point x="1061" y="340" type="qcurve" smooth="yes"/>
      <point x="1077" y="367"/>
      <point x="1061" y="426"/>
      <point x="1034" y="442" type="qcurve" smooth="yes"/>
      <point x="1007" y="457"/>
      <point x="949" y="440"/>
      <point x="932" y="415" type="qcurve" smooth="yes"/>
      <point x="903" y="374"/>
      <point x="848" y="307"/>
      <point x="821" y="265" type="curve" smooth="yes"/>
      <point x="793" y="221"/>
      <point x="757" y="112"/>
      <point x="736" y="66" type="curve" smooth="yes"/>
      <point x="723" y="39"/>
      <point x="704" y="49"/>
      <point x="692" y="75" type="curve" smooth="yes"/>
      <point x="681" y="99"/>
      <point x="561" y="330"/>
      <point x="517" y="461" type="curve"/>
      <point x="512" y="495"/>
      <point x="469" y="552"/>
      <point x="441" y="536" type="qcurve" smooth="yes"/>
      <point x="406" y="516"/>
      <point x="393" y="479" type="qcurve" smooth="yes"/>
      <point x="379" y="437"/>
      <point x="396" y="401" type="qcurve" smooth="yes"/>
      <point x="406" y="381"/>
      <point x="442" y="386" type="qcurve" smooth="yes"/>
      <point x="470" y="390"/>
      <point x="501" y="417" type="qcurve"/>
      <point x="501" y="417"/>
      <point x="508" y="406"/>
      <point x="508" y="392" type="curve" smooth="yes"/>
      <point x="508" y="359"/>
      <point x="378" y="59"/>
      <point x="368" y="51" type="curve" smooth="yes"/>
      <point x="353" y="40"/>
      <point x="330" y="32"/>
      <point x="310" y="31" type="curve" smooth="yes"/>
      <point x="292" y="30"/>
      <point x="278" y="37"/>
      <point x="266" y="51" type="curve" smooth="yes"/>
      <point x="252" y="66"/>
      <point x="165" y="174"/>
      <point x="151" y="265" type="curve" smooth="yes"/>
      <point x="146" y="299"/>
      <point x="103" y="356"/>
      <point x="75" y="340" type="qcurve" smooth="yes"/>
      <point x="40" y="320"/>
      <point x="27" y="283" type="qcurve" smooth="yes"/>
      <point x="13" y="241"/>
      <point x="30" y="205" type="qcurve" smooth="yes"/>
      <point x="40" y="185"/>
      <point x="76" y="190" type="qcurve" smooth="yes"/>
      <point x="104" y="194"/>
      <point x="135" y="221" type="qcurve"/>
      <point x="140" y="160"/>
      <point x="231" y="22"/>
      <point x="255" y="10" type="curve" smooth="yes"/>
      <point x="270" y="2"/>
      <point x="300" y="-3"/>
      <point x="326" y="0" type="curve" smooth="yes"/>
      <point x="348" y="2"/>
      <point x="386" y="22"/>
      <point x="401" y="47" type="curve" smooth="yes"/>
      <point x="429" y="94"/>
      <point x="530" y="346"/>
      <point x="527" y="363" type="curve"/>
      <point x="683" y="33" type="line" smooth="yes"/>
      <point x="688" y="22"/>
      <point x="705" y="8"/>
    </contour>
    <contour>
      <point x="971" y="333" type="qcurve"/>
      <point x="953" y="343"/>
      <point x="942" y="385"/>
      <point x="952" y="403" type="qcurve"/>
      <point x="963" y="421"/>
      <point x="1004" y="432"/>
      <point x="1022" y="422" type="qcurve"/>
      <point x="1040" y="411"/>
      <point x="1051" y="369"/>
      <point x="1041" y="352" type="qcurve" smooth="yes"/>
      <point x="1030" y="333"/>
      <point x="989" y="322"/>
    </contour>
    <contour>
      <point x="125" y="259" type="qcurve" smooth="yes"/>
      <point x="125" y="238"/>
      <point x="96" y="219"/>
      <point x="77" y="214" type="qcurve" smooth="yes"/>
      <point x="51" y="207"/>
      <point x="45" y="224" type="qcurve" smooth="yes"/>
      <point x="37" y="246"/>
      <point x="48" y="277" type="qcurve" smooth="yes"/>
      <point x="58" y="303"/>
      <point x="79" y="313" type="qcurve" smooth="yes"/>
      <point x="98" y="322"/>
      <point x="124" y="281"/>
    </contour>
    <contour>
      <point x="491" y="455" type="qcurve" smooth="yes"/>
      <point x="491" y="434"/>
      <point x="462" y="415"/>
      <point x="443" y="410" type="qcurve" smooth="yes"/>
      <point x="417" y="403"/>
      <point x="411" y="420" type="qcurve" smooth="yes"/>
      <point x="403" y="442"/>
      <point x="414" y="473" type="qcurve" smooth="yes"/>
      <point x="424" y="499"/>
      <point x="445" y="509" type="qcurve" smooth="yes"/>
      <point x="464" y="518"/>
      <point x="490" y="477"/>
    </contour>
  </outline>
</glyph>
<glyph name="t" format="2">
  <advance width="671"/>
  <unicode hex="0074"/>
  <outline>
    <contour>
      <point x="124" y="179" type="qcurve" smooth="yes"/>
      <point x="124" y="158"/>
      <point x="96" y="139"/>
      <point x="76" y="134" type="qcurve" smooth="yes"/>
      <point x="50" y="127"/>
      <point x="44" y="144" type="qcurve" smooth="yes"/>
      <point x="36" y="166"/>
      <point x="47" y="197" type="qcurve" smooth="yes"/>
      <point x="57" y="223"/>
      <point x="78" y="233" type="qcurve" smooth="yes"/>
      <point x="97" y="242"/>
      <point x="123" y="201"/>
    </contour>
    <contour>
      <point x="509" y="33" type="curve" smooth="yes"/>
      <point x="542" y="53"/>
      <point x="618" y="281"/>
      <point x="651" y="391" type="curve"/>
      <point x="628" y="391"/>
      <point x="635" y="399"/>
      <point x="619" y="418" type="curve"/>
      <point x="596" y="348"/>
      <point x="521" y="83"/>
      <point x="490" y="64" type="curve" smooth="yes"/>
      <point x="438" y="32"/>
      <point x="353" y="30"/>
      <point x="322" y="44" type="curve" smooth="yes"/>
      <point x="272" y="67"/>
      <point x="180" y="117"/>
      <point x="150" y="185" type="curve" smooth="yes"/>
      <point x="136" y="216"/>
      <point x="102" y="276"/>
      <point x="74" y="260" type="qcurve" smooth="yes"/>
      <point x="39" y="240"/>
      <point x="26" y="203" type="qcurve" smooth="yes"/>
      <point x="12" y="161"/>
      <point x="29" y="125" type="qcurve" smooth="yes"/>
      <point x="39" y="105"/>
      <point x="75" y="110" type="qcurve" smooth="yes"/>
      <point x="103" y="114"/>
      <point x="134" y="141" type="qcurve"/>
      <point x="155" y="103"/>
      <point x="297" y="13"/>
      <point x="322" y="6" type="curve" smooth="yes"/>
      <point x="373" y="-8"/>
      <point x="446" y="-5"/>
    </contour>
  </outline>
</glyph>
<glyph name="u" format="2">
  <advance width="473"/>
  <unicode hex="0075"/>
  <outline>
    <contour>
      <point x="282" y="37" type="qcurve" smooth="yes"/>
      <point x="309" y="53"/>
      <point x="325" y="113"/>
      <point x="309" y="140" type="qcurve" smooth="yes"/>
      <point x="260" y="225" type="line"/>
      <point x="453" y="560" type="line"/>
      <point x="422" y="560" type="line"/>
      <point x="245" y="252" type="line"/>
      <point x="67" y="560" type="line"/>
      <point x="313" y="560" type="line" smooth="yes"/>
      <point x="344" y="560"/>
      <point x="388" y="604"/>
      <point x="388" y="635" type="qcurve" smooth="yes"/>
      <point x="388" y="666"/>
      <point x="344" y="710"/>
      <point x="313" y="710" type="qcurve" smooth="yes"/>
      <point x="282" y="710"/>
      <point x="238" y="666"/>
      <point x="238" y="635" type="qcurve" smooth="yes"/>
      <point x="238" y="587" type="line"/>
      <point x="20" y="587" type="line"/>
      <point x="229" y="225" type="line"/>
      <point x="180" y="140" type="line" smooth="yes"/>
      <point x="175" y="132"/>
      <point x="172" y="122" type="qcurve" smooth="yes"/>
      <point x="164" y="92"/>
      <point x="180" y="65" type="qcurve" smooth="yes"/>
      <point x="195" y="38"/>
      <point x="255" y="22"/>
    </contour>
    <contour>
      <point x="244" y="50" type="qcurve" smooth="yes"/>
      <point x="224" y="50"/>
      <point x="195" y="79"/>
      <point x="195" y="99" type="qcurve" smooth="yes"/>
      <point x="195" y="113"/>
      <point x="201" y="124" type="qcurve" smooth="yes"/>
      <point x="245" y="199" type="line"/>
      <point x="288" y="124" type="line" smooth="yes"/>
      <point x="294" y="113"/>
      <point x="294" y="99" type="qcurve" smooth="yes"/>
      <point x="294" y="79"/>
      <point x="265" y="50"/>
    </contour>
    <contour>
      <point x="364" y="635" type="qcurve" smooth="yes"/>
      <point x="364" y="614"/>
      <point x="334" y="584"/>
      <point x="313" y="584" type="qcurve" smooth="yes"/>
      <point x="292" y="584"/>
      <point x="262" y="614"/>
      <point x="262" y="635" type="qcurve" smooth="yes"/>
      <point x="262" y="656"/>
      <point x="292" y="686"/>
      <point x="313" y="686" type="qcurve" smooth="yes"/>
      <point x="334" y="686"/>
      <point x="364" y="656"/>
    </contour>
  </outline>
  <guideline angle="0" x="0" y="878"/>
</glyph>
<glyph name="v" format="2">
  <advance width="750"/>
  <unicode hex="0076"/>
  <outline>
    <contour>
      <point x="730" y="123" type="line"/>
      <point x="730" y="150" type="line"/>
      <point x="607" y="150" type="line"/>
      <point x="607" y="560" type="line"/>
      <point x="655" y="560" type="line" smooth="yes"/>
      <point x="686" y="560"/>
      <point x="730" y="604"/>
      <point x="730" y="635" type="qcurve" smooth="yes"/>
      <point x="730" y="666"/>
      <point x="686" y="710"/>
      <point x="655" y="710" type="qcurve" smooth="yes"/>
      <point x="624" y="710"/>
      <point x="580" y="666"/>
      <point x="580" y="635" type="qcurve" smooth="yes"/>
      <point x="580" y="587" type="line"/>
      <point x="170" y="587" type="line"/>
      <point x="170" y="635" type="line" smooth="yes"/>
      <point x="170" y="666"/>
      <point x="126" y="710"/>
      <point x="95" y="710" type="qcurve" smooth="yes"/>
      <point x="64" y="710"/>
      <point x="20" y="666"/>
      <point x="20" y="635" type="qcurve" smooth="yes"/>
      <point x="20" y="604"/>
      <point x="64" y="560"/>
      <point x="95" y="560" type="qcurve" smooth="yes"/>
      <point x="143" y="560" type="line"/>
      <point x="143" y="150" type="line"/>
      <point x="95" y="150" type="line" smooth="yes"/>
      <point x="64" y="150"/>
      <point x="20" y="106"/>
      <point x="20" y="75" type="qcurve" smooth="yes"/>
      <point x="20" y="44"/>
      <point x="64" y="0"/>
      <point x="95" y="0" type="qcurve" smooth="yes"/>
      <point x="126" y="0"/>
      <point x="170" y="44"/>
      <point x="170" y="75" type="qcurve" smooth="yes"/>
      <point x="170" y="123" type="line"/>
      <point x="363" y="123" type="line"/>
      <point x="363" y="0" type="line"/>
      <point x="335" y="-4"/>
      <point x="299" y="-46"/>
      <point x="299" y="-74" type="qcurve" smooth="yes"/>
      <point x="299" y="-102"/>
      <point x="345" y="-146"/>
      <point x="375" y="-146" type="qcurve" smooth="yes"/>
      <point x="406" y="-146"/>
      <point x="448" y="-102"/>
      <point x="448" y="-73" type="qcurve" smooth="yes"/>
      <point x="448" y="-49"/>
      <point x="415" y="-8"/>
      <point x="390" y="-1" type="qcurve"/>
      <point x="390" y="123" type="line"/>
      <point x="580" y="123" type="line"/>
      <point x="580" y="0" type="line"/>
      <point x="607" y="0" type="line"/>
      <point x="607" y="123" type="line"/>
    </contour>
    <contour>
      <point x="170" y="150" type="line"/>
      <point x="170" y="560" type="line"/>
      <point x="363" y="560" type="line"/>
      <point x="363" y="150" type="line"/>
    </contour>
    <contour>
      <point x="390" y="150" type="line"/>
      <point x="390" y="560" type="line"/>
      <point x="580" y="560" type="line"/>
      <point x="580" y="150" type="line"/>
    </contour>
    <contour>
      <point x="146" y="635" type="qcurve" smooth="yes"/>
      <point x="146" y="614"/>
      <point x="116" y="584"/>
      <point x="95" y="584" type="qcurve" smooth="yes"/>
      <point x="74" y="584"/>
      <point x="44" y="614"/>
      <point x="44" y="635" type="qcurve" smooth="yes"/>
      <point x="44" y="656"/>
      <point x="74" y="686"/>
      <point x="95" y="686" type="qcurve" smooth="yes"/>
      <point x="116" y="686"/>
      <point x="146" y="656"/>
    </contour>
    <contour>
      <point x="706" y="635" type="qcurve" smooth="yes"/>
      <point x="706" y="614"/>
      <point x="676" y="584"/>
      <point x="655" y="584" type="qcurve" smooth="yes"/>
      <point x="634" y="584"/>
      <point x="604" y="614"/>
      <point x="604" y="635" type="qcurve" smooth="yes"/>
      <point x="604" y="656"/>
      <point x="634" y="686"/>
      <point x="655" y="686" type="qcurve" smooth="yes"/>
      <point x="676" y="686"/>
      <point x="706" y="656"/>
    </contour>
    <contour>
      <point x="146" y="75" type="qcurve" smooth="yes"/>
      <point x="146" y="54"/>
      <point x="116" y="24"/>
      <point x="95" y="24" type="qcurve" smooth="yes"/>
      <point x="74" y="24"/>
      <point x="44" y="54"/>
      <point x="44" y="75" type="qcurve" smooth="yes"/>
      <point x="44" y="96"/>
      <point x="74" y="126"/>
      <point x="95" y="126" type="qcurve" smooth="yes"/>
      <point x="116" y="126"/>
      <point x="146" y="96"/>
    </contour>
    <contour>
      <point x="374" y="-23" type="qcurve" smooth="yes"/>
      <point x="395" y="-23"/>
      <point x="425" y="-53"/>
      <point x="425" y="-74" type="qcurve" smooth="yes"/>
      <point x="425" y="-95"/>
      <point x="395" y="-125"/>
      <point x="374" y="-125" type="qcurve" smooth="yes"/>
      <point x="353" y="-125"/>
      <point x="323" y="-95"/>
      <point x="323" y="-74" type="qcurve" smooth="yes"/>
      <point x="323" y="-53"/>
      <point x="353" y="-23"/>
    </contour>
  </outline>
</glyph>
<glyph name="w" format="2">
  <advance width="889"/>
  <unicode hex="0077"/>
  <outline>
    <contour>
      <point x="513" y="50" type="qcurve" smooth="yes"/>
      <point x="493" y="50"/>
      <point x="464" y="79"/>
      <point x="464" y="99" type="qcurve" smooth="yes"/>
      <point x="464" y="113"/>
      <point x="470" y="124" type="qcurve" smooth="yes"/>
      <point x="514" y="199" type="line"/>
      <point x="557" y="124" type="line" smooth="yes"/>
      <point x="563" y="113"/>
      <point x="563" y="99" type="qcurve" smooth="yes"/>
      <point x="563" y="79"/>
      <point x="534" y="50"/>
    </contour>
    <contour>
      <point x="551" y="37" type="qcurve" smooth="yes"/>
      <point x="578" y="53"/>
      <point x="594" y="113"/>
      <point x="578" y="140" type="qcurve" smooth="yes"/>
      <point x="529" y="225" type="line"/>
      <point x="668" y="465" type="line"/>
      <point x="637" y="465" type="line"/>
      <point x="514" y="252" type="line"/>
      <point x="391" y="465" type="line"/>
      <point x="440" y="550" type="line" smooth="yes"/>
      <point x="456" y="577"/>
      <point x="440" y="637"/>
      <point x="413" y="653" type="qcurve" smooth="yes"/>
      <point x="386" y="668"/>
      <point x="326" y="652"/>
      <point x="311" y="625" type="qcurve" smooth="yes"/>
      <point x="295" y="598"/>
      <point x="303" y="568" type="qcurve" smooth="yes"/>
      <point x="306" y="558"/>
      <point x="311" y="550" type="qcurve" smooth="yes"/>
      <point x="360" y="465" type="line"/>
      <point x="166" y="129" type="line"/>
      <point x="157" y="154"/>
      <point x="133" y="168" type="qcurve" smooth="yes"/>
      <point x="106" y="183"/>
      <point x="46" y="167"/>
      <point x="31" y="140" type="qcurve" smooth="yes"/>
      <point x="15" y="113"/>
      <point x="31" y="53"/>
      <point x="58" y="38" type="qcurve" smooth="yes"/>
      <point x="85" y="22"/>
      <point x="145" y="38"/>
      <point x="160" y="65" type="qcurve" smooth="yes"/>
      <point x="376" y="438" type="line"/>
      <point x="498" y="225" type="line"/>
      <point x="449" y="140" type="line" smooth="yes"/>
      <point x="444" y="132"/>
      <point x="441" y="122" type="qcurve" smooth="yes"/>
      <point x="433" y="92"/>
      <point x="449" y="65" type="qcurve" smooth="yes"/>
      <point x="464" y="38"/>
      <point x="524" y="22"/>
    </contour>
    <contour>
      <point x="375" y="640" type="qcurve" smooth="yes"/>
      <point x="396" y="640"/>
      <point x="425" y="611"/>
      <point x="425" y="591" type="qcurve" smooth="yes"/>
      <point x="425" y="577"/>
      <point x="419" y="566" type="qcurve" smooth="yes"/>
      <point x="376" y="491" type="line"/>
      <point x="332" y="566" type="line" smooth="yes"/>
      <point x="326" y="577"/>
      <point x="326" y="591" type="qcurve" smooth="yes"/>
      <point x="326" y="611"/>
      <point x="355" y="640"/>
    </contour>
    <contour>
      <point x="121" y="147" type="qcurve" smooth="yes"/>
      <point x="139" y="136"/>
      <point x="150" y="95"/>
      <point x="140" y="77" type="qcurve" smooth="yes"/>
      <point x="129" y="59"/>
      <point x="88" y="48"/>
      <point x="70" y="58" type="qcurve" smooth="yes"/>
      <point x="52" y="69"/>
      <point x="41" y="110"/>
      <point x="51" y="128" type="qcurve" smooth="yes"/>
      <point x="62" y="146"/>
      <point x="103" y="157"/>
    </contour>
  </outline>
</glyph>
<glyph name="x" format="2">
  <advance width="697"/>
  <unicode hex="0078"/>
  <outline>
    <contour>
      <point x="551" y="375" type="qcurve" smooth="yes"/>
      <point x="551" y="396"/>
      <point x="581" y="426"/>
      <point x="602" y="426" type="qcurve" smooth="yes"/>
      <point x="623" y="426"/>
      <point x="653" y="396"/>
      <point x="653" y="375" type="qcurve" smooth="yes"/>
      <point x="653" y="354"/>
      <point x="623" y="324"/>
      <point x="602" y="324" type="qcurve" smooth="yes"/>
      <point x="581" y="324"/>
      <point x="551" y="354"/>
    </contour>
    <contour>
      <point x="602" y="300" type="curve" smooth="yes"/>
      <point x="633" y="300"/>
      <point x="677" y="344"/>
      <point x="677" y="375" type="qcurve" smooth="yes"/>
      <point x="677" y="406"/>
      <point x="633" y="450"/>
      <point x="602" y="450" type="qcurve" smooth="yes"/>
      <point x="571" y="450"/>
      <point x="527" y="406"/>
      <point x="527" y="375" type="qcurve" smooth="yes"/>
      <point x="527" y="347"/>
      <point x="544" y="327" type="qcurve"/>
      <point x="446" y="327"/>
      <point x="417" y="327"/>
      <point x="319" y="327" type="curve" smooth="yes"/>
      <point x="267" y="327"/>
      <point x="183" y="346"/>
      <point x="145" y="366" type="curve"/>
      <point x="172" y="397"/>
      <point x="176" y="425" type="qcurve" smooth="yes"/>
      <point x="181" y="461"/>
      <point x="161" y="471" type="qcurve" smooth="yes"/>
      <point x="124" y="490"/>
      <point x="83" y="475" type="qcurve" smooth="yes"/>
      <point x="46" y="462"/>
      <point x="26" y="427" type="qcurve" smooth="yes"/>
      <point x="10" y="399"/>
      <point x="70" y="364"/>
      <point x="101" y="350" type="qcurve" smooth="yes"/>
      <point x="169" y="319"/>
      <point x="248" y="300"/>
      <point x="319" y="300" type="curve" smooth="yes"/>
      <point x="436" y="300"/>
      <point x="485" y="300"/>
    </contour>
    <contour>
      <point x="107" y="377" type="qcurve" smooth="yes"/>
      <point x="86" y="377"/>
      <point x="44" y="404"/>
      <point x="53" y="423" type="qcurve" smooth="yes"/>
      <point x="64" y="446"/>
      <point x="90" y="454" type="qcurve" smooth="yes"/>
      <point x="120" y="464"/>
      <point x="141" y="456" type="qcurve" smooth="yes"/>
      <point x="158" y="450"/>
      <point x="152" y="425" type="qcurve" smooth="yes"/>
      <point x="147" y="405"/>
      <point x="128" y="377"/>
    </contour>
    <contour>
      <point x="300" y="584" type="qcurve" smooth="yes"/>
      <point x="279" y="584"/>
      <point x="249" y="614"/>
      <point x="249" y="635" type="qcurve" smooth="yes"/>
      <point x="249" y="656"/>
      <point x="279" y="686"/>
      <point x="300" y="686" type="qcurve" smooth="yes"/>
      <point x="320" y="686"/>
      <point x="351" y="656"/>
      <point x="351" y="635" type="qcurve" smooth="yes"/>
      <point x="351" y="614"/>
      <point x="320" y="584"/>
    </contour>
    <contour>
      <point x="300" y="0" type="qcurve" smooth="yes"/>
      <point x="331" y="0"/>
      <point x="375" y="44"/>
      <point x="375" y="75" type="qcurve" smooth="yes"/>
      <point x="375" y="635" type="line" smooth="yes"/>
      <point x="375" y="666"/>
      <point x="331" y="710"/>
      <point x="300" y="710" type="qcurve" smooth="yes"/>
      <point x="269" y="710"/>
      <point x="225" y="666"/>
      <point x="225" y="635" type="qcurve" smooth="yes"/>
      <point x="225" y="604"/>
      <point x="269" y="560"/>
      <point x="300" y="560" type="qcurve" smooth="yes"/>
      <point x="328" y="560"/>
      <point x="348" y="577" type="qcurve"/>
      <point x="348" y="133" type="line"/>
      <point x="328" y="150"/>
      <point x="300" y="150" type="qcurve" smooth="yes"/>
      <point x="269" y="150"/>
      <point x="225" y="106"/>
      <point x="225" y="75" type="qcurve" smooth="yes"/>
      <point x="225" y="44"/>
      <point x="269" y="0"/>
    </contour>
    <contour>
      <point x="300" y="24" type="qcurve" smooth="yes"/>
      <point x="279" y="24"/>
      <point x="249" y="54"/>
      <point x="249" y="75" type="qcurve" smooth="yes"/>
      <point x="249" y="96"/>
      <point x="279" y="126"/>
      <point x="300" y="126" type="qcurve" smooth="yes"/>
      <point x="320" y="126"/>
      <point x="351" y="96"/>
      <point x="351" y="75" type="qcurve" smooth="yes"/>
      <point x="351" y="54"/>
      <point x="320" y="24"/>
    </contour>
  </outline>
</glyph>
<glyph name="y" format="2">
  <advance width="313"/>
  <unicode hex="0079"/>
  <outline>
    <contour>
      <point x="143" y="133" type="line"/>
      <point x="123" y="150"/>
      <point x="95" y="150" type="qcurve" smooth="yes"/>
      <point x="64" y="150"/>
      <point x="20" y="106"/>
      <point x="20" y="75" type="qcurve" smooth="yes"/>
      <point x="20" y="44"/>
      <point x="64" y="0"/>
      <point x="95" y="0" type="qcurve" smooth="yes"/>
      <point x="126" y="0"/>
      <point x="170" y="44"/>
      <point x="170" y="75" type="qcurve" smooth="yes"/>
      <point x="170" y="345" type="line"/>
      <point x="320" y="345" type="line" smooth="yes"/>
      <point x="351" y="345"/>
      <point x="395" y="389"/>
      <point x="395" y="420" type="qcurve" smooth="yes"/>
      <point x="395" y="635" type="line" smooth="yes"/>
      <point x="395" y="666"/>
      <point x="351" y="710"/>
      <point x="320" y="710" type="qcurve" smooth="yes"/>
      <point x="289" y="710"/>
      <point x="245" y="666"/>
      <point x="245" y="635" type="qcurve" smooth="yes"/>
      <point x="245" y="604"/>
      <point x="289" y="560"/>
      <point x="320" y="560" type="qcurve" smooth="yes"/>
      <point x="348" y="560"/>
      <point x="368" y="577" type="qcurve"/>
      <point x="368" y="423" type="line" smooth="yes"/>
      <point x="368" y="402"/>
      <point x="338" y="372"/>
      <point x="317" y="372" type="qcurve" smooth="yes"/>
      <point x="170" y="372" type="line"/>
      <point x="170" y="635" type="line" smooth="yes"/>
      <point x="170" y="666"/>
      <point x="126" y="710"/>
      <point x="95" y="710" type="qcurve" smooth="yes"/>
      <point x="64" y="710"/>
      <point x="20" y="666"/>
      <point x="20" y="635" type="qcurve" smooth="yes"/>
      <point x="20" y="604"/>
      <point x="64" y="560"/>
      <point x="95" y="560" type="qcurve" smooth="yes"/>
      <point x="123" y="560"/>
      <point x="143" y="577" type="qcurve"/>
      <point x="143" y="372" type="line"/>
      <point x="-4" y="372" type="line" smooth="yes"/>
      <point x="-25" y="372"/>
      <point x="-55" y="402"/>
      <point x="-55" y="423" type="qcurve" smooth="yes"/>
      <point x="-55" y="635" type="line" smooth="yes"/>
      <point x="-55" y="666"/>
      <point x="-99" y="710"/>
      <point x="-130" y="710" type="qcurve" smooth="yes"/>
      <point x="-161" y="710"/>
      <point x="-205" y="666"/>
      <point x="-205" y="635" type="qcurve" smooth="yes"/>
      <point x="-205" y="604"/>
      <point x="-161" y="560"/>
      <point x="-130" y="560" type="qcurve" smooth="yes"/>
      <point x="-102" y="560"/>
      <point x="-82" y="577" type="qcurve"/>
      <point x="-82" y="420" type="line" smooth="yes"/>
      <point x="-82" y="389"/>
      <point x="-38" y="345"/>
      <point x="-7" y="345" type="qcurve" smooth="yes"/>
      <point x="143" y="345" type="line"/>
    </contour>
    <contour>
      <point x="95" y="584" type="qcurve" smooth="yes"/>
      <point x="74" y="584"/>
      <point x="44" y="614"/>
      <point x="44" y="635" type="qcurve" smooth="yes"/>
      <point x="44" y="656"/>
      <point x="74" y="686"/>
      <point x="95" y="686" type="qcurve" smooth="yes"/>
      <point x="116" y="686"/>
      <point x="146" y="656"/>
      <point x="146" y="635" type="qcurve" smooth="yes"/>
      <point x="146" y="614"/>
      <point x="116" y="584"/>
    </contour>
    <contour>
      <point x="320" y="584" type="qcurve" smooth="yes"/>
      <point x="299" y="584"/>
      <point x="269" y="614"/>
      <point x="269" y="635" type="qcurve" smooth="yes"/>
      <point x="269" y="656"/>
      <point x="299" y="686"/>
      <point x="320" y="686" type="qcurve" smooth="yes"/>
      <point x="341" y="686"/>
      <point x="371" y="656"/>
      <point x="371" y="635" type="qcurve" smooth="yes"/>
      <point x="371" y="614"/>
      <point x="341" y="584"/>
    </contour>
    <contour>
      <point x="-130" y="584" type="qcurve" smooth="yes"/>
      <point x="-151" y="584"/>
      <point x="-181" y="614"/>
      <point x="-181" y="635" type="qcurve" smooth="yes"/>
      <point x="-181" y="656"/>
      <point x="-151" y="686"/>
      <point x="-130" y="686" type="qcurve" smooth="yes"/>
      <point x="-109" y="686"/>
      <point x="-79" y="656"/>
      <point x="-79" y="635" type="qcurve" smooth="yes"/>
      <point x="-79" y="614"/>
      <point x="-109" y="584"/>
    </contour>
    <contour>
      <point x="95" y="24" type="qcurve" smooth="yes"/>
      <point x="74" y="24"/>
      <point x="44" y="54"/>
      <point x="44" y="75" type="qcurve" smooth="yes"/>
      <point x="44" y="96"/>
      <point x="74" y="126"/>
      <point x="95" y="126" type="qcurve" smooth="yes"/>
      <point x="116" y="126"/>
      <point x="146" y="96"/>
      <point x="146" y="75" type="qcurve" smooth="yes"/>
      <point x="146" y="54"/>
      <point x="116" y="24"/>
    </contour>
  </outline>
</glyph>
<glyph name="z" format="2">
  <advance width="608"/>
  <unicode hex="007A"/>
  <outline>
    <contour>
      <point x="248" y="273" type="curve" smooth="yes"/>
      <point x="442" y="609" type="line"/>
      <point x="451" y="583"/>
      <point x="475" y="570" type="qcurve"/>
      <point x="502" y="554"/>
      <point x="562" y="571"/>
      <point x="577" y="598" type="qcurve"/>
      <point x="593" y="625"/>
      <point x="577" y="684"/>
      <point x="550" y="700" type="qcurve"/>
      <point x="523" y="715"/>
      <point x="463" y="699"/>
      <point x="448" y="673" type="qcurve" smooth="yes"/>
      <point x="233" y="300" type="line"/>
      <point x="81" y="561" type="line"/>
      <point x="87" y="560"/>
      <point x="95" y="560" type="qcurve" smooth="yes"/>
      <point x="126" y="560"/>
      <point x="170" y="604"/>
      <point x="170" y="635" type="qcurve" smooth="yes"/>
      <point x="170" y="666"/>
      <point x="126" y="710"/>
      <point x="95" y="710" type="qcurve" smooth="yes"/>
      <point x="64" y="710"/>
      <point x="20" y="666"/>
      <point x="20" y="635" type="qcurve" smooth="yes"/>
      <point x="20" y="622"/>
      <point x="23" y="610"/>
      <point x="29" y="599" type="curve"/>
      <point x="217" y="273" type="line" smooth="yes"/>
      <point x="223" y="262"/>
      <point x="226" y="257"/>
      <point x="233" y="257" type="curve" smooth="yes"/>
      <point x="240" y="257"/>
      <point x="242" y="263"/>
    </contour>
    <contour>
      <point x="487" y="591" type="qcurve" smooth="yes"/>
      <point x="469" y="601"/>
      <point x="457" y="643"/>
      <point x="468" y="661" type="qcurve" smooth="yes"/>
      <point x="478" y="679"/>
      <point x="520" y="690"/>
      <point x="538" y="680" type="qcurve" smooth="yes"/>
      <point x="556" y="669"/>
      <point x="567" y="627"/>
      <point x="557" y="610" type="qcurve" smooth="yes"/>
      <point x="546" y="591"/>
      <point x="505" y="580"/>
    </contour>
    <contour>
      <point x="95" y="584" type="qcurve" smooth="yes"/>
      <point x="74" y="584"/>
      <point x="44" y="614"/>
      <point x="44" y="635" type="qcurve" smooth="yes"/>
      <point x="44" y="656"/>
      <point x="74" y="686"/>
      <point x="95" y="686" type="qcurve" smooth="yes"/>
      <point x="116" y="686"/>
      <point x="146" y="656"/>
      <point x="146" y="635" type="qcurve" smooth="yes"/>
      <point x="146" y="614"/>
      <point x="116" y="584"/>
    </contour>
  </outline>
</glyph>
